%TF.GenerationSoftware,KiCad,Pcbnew,10.0.1*%
%TF.CreationDate,2026-07-17T03:26:24+05:30*%
%TF.ProjectId,macropad-v2,6d616372-6f70-4616-942d-76322e6b6963,rev?*%
%TF.SameCoordinates,Original*%
%TF.FileFunction,Copper,L2,Bot*%
%TF.FilePolarity,Positive*%
%FSLAX46Y46*%
G04 Gerber Fmt 4.6, Leading zero omitted, Abs format (unit mm)*
G04 Created by KiCad (PCBNEW 10.0.1) date 2026-07-17 03:26:24*
%MOMM*%
%LPD*%
G01*
G04 APERTURE LIST*
G04 Aperture macros list*
%AMRoundRect*
0 Rectangle with rounded corners*
0 $1 Rounding radius*
0 $2 $3 $4 $5 $6 $7 $8 $9 X,Y pos of 4 corners*
0 Add a 4 corners polygon primitive as box body*
4,1,4,$2,$3,$4,$5,$6,$7,$8,$9,$2,$3,0*
0 Add four circle primitives for the rounded corners*
1,1,$1+$1,$2,$3*
1,1,$1+$1,$4,$5*
1,1,$1+$1,$6,$7*
1,1,$1+$1,$8,$9*
0 Add four rect primitives between the rounded corners*
20,1,$1+$1,$2,$3,$4,$5,0*
20,1,$1+$1,$4,$5,$6,$7,0*
20,1,$1+$1,$6,$7,$8,$9,0*
20,1,$1+$1,$8,$9,$2,$3,0*%
G04 Aperture macros list end*
%TA.AperFunction,ComponentPad*%
%ADD10RoundRect,0.250000X-0.550000X-0.550000X0.550000X-0.550000X0.550000X0.550000X-0.550000X0.550000X0*%
%TD*%
%TA.AperFunction,ComponentPad*%
%ADD11C,1.600000*%
%TD*%
%TA.AperFunction,ComponentPad*%
%ADD12C,2.200000*%
%TD*%
%TA.AperFunction,ComponentPad*%
%ADD13RoundRect,0.250000X-0.350000X-0.625000X0.350000X-0.625000X0.350000X0.625000X-0.350000X0.625000X0*%
%TD*%
%TA.AperFunction,ComponentPad*%
%ADD14O,1.200000X1.750000*%
%TD*%
%TA.AperFunction,ComponentPad*%
%ADD15C,1.800000*%
%TD*%
%TA.AperFunction,ComponentPad*%
%ADD16RoundRect,0.450000X-0.450000X0.450000X-0.450000X-0.450000X0.450000X-0.450000X0.450000X0.450000X0*%
%TD*%
%TA.AperFunction,ComponentPad*%
%ADD17O,4.340000X1.800000*%
%TD*%
%TA.AperFunction,ComponentPad*%
%ADD18R,2.000000X2.000000*%
%TD*%
%TA.AperFunction,ComponentPad*%
%ADD19C,2.000000*%
%TD*%
%TA.AperFunction,ComponentPad*%
%ADD20R,3.200000X2.000000*%
%TD*%
%TA.AperFunction,Conductor*%
%ADD21C,0.200000*%
%TD*%
G04 APERTURE END LIST*
D10*
%TO.P,D15,1,K_1*%
%TO.N,C3*%
X127279400Y-143992600D03*
D11*
%TO.P,D15,2,A_2*%
%TO.N,Net-(D15-A)*%
X134899400Y-143992600D03*
%TD*%
D12*
%TO.P,SW4,1,1_1*%
%TO.N,R4*%
X93329714Y-128046981D03*
%TO.P,SW4,2,2_2*%
%TO.N,Net-(D4-A)*%
X86979714Y-130586981D03*
%TD*%
D10*
%TO.P,D3,1,K_1*%
%TO.N,C1*%
X86674914Y-105796581D03*
D11*
%TO.P,D3,2,A_2*%
%TO.N,Net-(D3-A)*%
X94294914Y-105796581D03*
%TD*%
%TO.P,R1,1*%
%TO.N,GND*%
X121259600Y-51536600D03*
%TO.P,R1,2*%
%TO.N,BAT_S*%
X128879600Y-51536600D03*
%TD*%
D13*
%TO.P,J2,1,Pin_1_1*%
%TO.N,VBAT*%
X138792200Y-27432000D03*
D14*
%TO.P,J2,2,Pin_2_2*%
%TO.N,GND*%
X140792200Y-27432000D03*
%TD*%
D11*
%TO.P,R2,1*%
%TO.N,BAT_S*%
X138353800Y-49657000D03*
%TO.P,R2,2*%
%TO.N,VBAT*%
X138353800Y-57277000D03*
%TD*%
D15*
%TO.P,U1,1,P0.06_1*%
%TO.N,unconnected-(U1-P0.06-Pad1)*%
X139573000Y-31826200D03*
%TO.P,U1,2,P0.08_2*%
%TO.N,unconnected-(U1-P0.08-Pad2)*%
X137033000Y-31826200D03*
D16*
%TO.P,U1,3,GND_3*%
%TO.N,GND*%
X134493000Y-31826200D03*
%TO.P,U1,4,GND_4*%
X131953000Y-31826200D03*
D15*
%TO.P,U1,5,P0.17_5*%
%TO.N,R5*%
X129413000Y-31826200D03*
%TO.P,U1,6,P0.20_6*%
%TO.N,R4*%
X126873000Y-31826200D03*
%TO.P,U1,7,P0.22_7*%
%TO.N,R3*%
X124333000Y-31826200D03*
%TO.P,U1,8,P0.24_8*%
%TO.N,R2*%
X121793000Y-31826200D03*
%TO.P,U1,9,P1.00_9*%
%TO.N,R1*%
X119253000Y-31826200D03*
%TO.P,U1,10,P0.11_10*%
%TO.N,EB2*%
X116713000Y-31826200D03*
%TO.P,U1,11,P1.04-LF_11*%
%TO.N,EA2*%
X114173000Y-31826200D03*
%TO.P,U1,12,P1.06-LF_12*%
%TO.N,E2R*%
X111633000Y-31826200D03*
D17*
%TO.P,U1,13,BAT+_13*%
%TO.N,VBAT*%
X140843000Y-47066200D03*
D16*
%TO.P,U1,14,GND_14*%
%TO.N,GND*%
X137033000Y-47066200D03*
D15*
%TO.P,U1,15,RST_15*%
%TO.N,unconnected-(U1-RST-Pad15)*%
X134493000Y-47066200D03*
%TO.P,U1,16,3V3_16*%
%TO.N,+3V3*%
X131953000Y-47066200D03*
%TO.P,U1,17,P0.31-LF_17*%
%TO.N,BAT_S*%
X129413000Y-47066200D03*
%TO.P,U1,18,P0.29-LF_18*%
%TO.N,unconnected-(U1-P0.29-LF-Pad18)*%
X126873000Y-47066200D03*
%TO.P,U1,19,P0.02-LF_19*%
%TO.N,unconnected-(U1-P0.02-LF-Pad19)*%
X124333000Y-47066200D03*
%TO.P,U1,20,P1.15-LF_20*%
%TO.N,C3*%
X121793000Y-47066200D03*
%TO.P,U1,21,P1.13-LF_21*%
%TO.N,C2*%
X119253000Y-47066200D03*
%TO.P,U1,22,P1.11-LF_22*%
%TO.N,C1*%
X116713000Y-47066200D03*
%TO.P,U1,23,P0.10-LF_23*%
%TO.N,EB*%
X114173000Y-47066200D03*
%TO.P,U1,24,P0.09-LF_24*%
%TO.N,E1C*%
X111633000Y-47066200D03*
%TO.P,U1,25,P1.01-LF_25*%
%TO.N,E2C*%
X116713000Y-34366200D03*
%TO.P,U1,26,P1.02-LF_26*%
%TO.N,EA*%
X116713000Y-36906200D03*
%TO.P,U1,27,P1.07-LF_27*%
%TO.N,E1R*%
X116713000Y-39446200D03*
D16*
%TO.P,U1,28,GND_28*%
%TO.N,GND*%
X142113000Y-31826200D03*
D15*
%TO.P,U1,29,BAT+_29*%
%TO.N,VBAT*%
X142113000Y-47066200D03*
%TD*%
D18*
%TO.P,SW16,A,A_A*%
%TO.N,EA*%
X82462800Y-50052600D03*
D19*
%TO.P,SW16,B,B_B*%
%TO.N,EB*%
X82462800Y-55052600D03*
%TO.P,SW16,C,C_C*%
%TO.N,GND*%
X82462800Y-52552600D03*
D20*
%TO.P,SW16,MP,MP_MP*%
X89962800Y-46952600D03*
X89962800Y-58152600D03*
D19*
%TO.P,SW16,S1,S1_S1*%
%TO.N,E1R*%
X96962800Y-55052600D03*
%TO.P,SW16,S2,S2_S2*%
%TO.N,Net-(D16-A)*%
X96962800Y-50052600D03*
%TD*%
D12*
%TO.P,SW8,1,1_1*%
%TO.N,R3*%
X113766600Y-108864400D03*
%TO.P,SW8,2,2_2*%
%TO.N,Net-(D8-A)*%
X107416600Y-111404400D03*
%TD*%
D10*
%TO.P,D4,1,K_1*%
%TO.N,C1*%
X86573314Y-125024381D03*
D11*
%TO.P,D4,2,A_2*%
%TO.N,Net-(D4-A)*%
X94193314Y-125024381D03*
%TD*%
D12*
%TO.P,SW2,1,1_1*%
%TO.N,R2*%
X93318655Y-89707322D03*
%TO.P,SW2,2,2_2*%
%TO.N,Net-(D2-A)*%
X86968655Y-92247322D03*
%TD*%
D10*
%TO.P,D11,1,K_1*%
%TO.N,C3*%
X127279400Y-67538600D03*
D11*
%TO.P,D11,2,A_2*%
%TO.N,Net-(D11-A)*%
X134899400Y-67538600D03*
%TD*%
D12*
%TO.P,SW12,1,1_1*%
%TO.N,R2*%
X134136742Y-89635942D03*
%TO.P,SW12,2,2_2*%
%TO.N,Net-(D12-A)*%
X127786742Y-92175942D03*
%TD*%
D10*
%TO.P,D16,1,K_1*%
%TO.N,E1C*%
X85918212Y-60915666D03*
D11*
%TO.P,D16,2,A_2*%
%TO.N,Net-(D16-A)*%
X93538212Y-60915666D03*
%TD*%
D12*
%TO.P,SW9,1,1_1*%
%TO.N,R4*%
X113766600Y-128041400D03*
%TO.P,SW9,2,2_2*%
%TO.N,Net-(D9-A)*%
X107416600Y-130581400D03*
%TD*%
%TO.P,SW3,1,1_1*%
%TO.N,R3*%
X93329714Y-108869981D03*
%TO.P,SW3,2,2_2*%
%TO.N,Net-(D3-A)*%
X86979714Y-111409981D03*
%TD*%
D10*
%TO.P,D8,1,K_1*%
%TO.N,C2*%
X106959400Y-105714800D03*
D11*
%TO.P,D8,2,A_2*%
%TO.N,Net-(D8-A)*%
X114579400Y-105714800D03*
%TD*%
D10*
%TO.P,D17,1,K_1*%
%TO.N,E2C*%
X85941030Y-43393408D03*
D11*
%TO.P,D17,2,A_2*%
%TO.N,Net-(D17-A)*%
X93561030Y-43393408D03*
%TD*%
D12*
%TO.P,SW11,1,1_1*%
%TO.N,R1*%
X134162142Y-70560542D03*
%TO.P,SW11,2,2_2*%
%TO.N,Net-(D11-A)*%
X127812142Y-73100542D03*
%TD*%
D10*
%TO.P,D13,1,K_1*%
%TO.N,C3*%
X127279400Y-105664000D03*
D11*
%TO.P,D13,2,A_2*%
%TO.N,Net-(D13-A)*%
X134899400Y-105664000D03*
%TD*%
%TO.P,C2,1*%
%TO.N,+3V3*%
X131993000Y-54737000D03*
%TO.P,C2,2*%
%TO.N,GND*%
X134493000Y-54737000D03*
%TD*%
D10*
%TO.P,D10,1,K_1*%
%TO.N,C2*%
X107188000Y-143967200D03*
D11*
%TO.P,D10,2,A_2*%
%TO.N,Net-(D10-A)*%
X114808000Y-143967200D03*
%TD*%
D10*
%TO.P,D5,1,K_1*%
%TO.N,C1*%
X86625793Y-144196128D03*
D11*
%TO.P,D5,2,A_2*%
%TO.N,Net-(D5-A)*%
X94245793Y-144196128D03*
%TD*%
D10*
%TO.P,D14,1,K_1*%
%TO.N,C3*%
X127381000Y-124841000D03*
D11*
%TO.P,D14,2,A_2*%
%TO.N,Net-(D14-A)*%
X135001000Y-124841000D03*
%TD*%
D12*
%TO.P,SW10,1,1_1*%
%TO.N,R5*%
X113766600Y-147193000D03*
%TO.P,SW10,2,2_2*%
%TO.N,Net-(D10-A)*%
X107416600Y-149733000D03*
%TD*%
%TO.P,SW14,1,1_1*%
%TO.N,R4*%
X134136742Y-127964542D03*
%TO.P,SW14,2,2_2*%
%TO.N,Net-(D14-A)*%
X127786742Y-130504542D03*
%TD*%
%TO.P,SW6,1,1_1*%
%TO.N,R1*%
X113755153Y-70548864D03*
%TO.P,SW6,2,2_2*%
%TO.N,Net-(D6-A)*%
X107405153Y-73088864D03*
%TD*%
D18*
%TO.P,SW17,A,A_A*%
%TO.N,EA2*%
X82703788Y-32502344D03*
D19*
%TO.P,SW17,B,B_B*%
%TO.N,EB2*%
X82703788Y-37502344D03*
%TO.P,SW17,C,C_C*%
%TO.N,GND*%
X82703788Y-35002344D03*
D20*
%TO.P,SW17,MP,MP_MP*%
X90203788Y-29402344D03*
X90203788Y-40602344D03*
D19*
%TO.P,SW17,S1,S1_S1*%
%TO.N,E2R*%
X97203788Y-37502344D03*
%TO.P,SW17,S2,S2_S2*%
%TO.N,Net-(D17-A)*%
X97203788Y-32502344D03*
%TD*%
D10*
%TO.P,D6,1,K_1*%
%TO.N,C2*%
X107137200Y-67411600D03*
D11*
%TO.P,D6,2,A_2*%
%TO.N,Net-(D6-A)*%
X114757200Y-67411600D03*
%TD*%
D12*
%TO.P,SW5,1,1_1*%
%TO.N,R5*%
X93319600Y-147167600D03*
%TO.P,SW5,2,2_2*%
%TO.N,Net-(D5-A)*%
X86969600Y-149707600D03*
%TD*%
D10*
%TO.P,D2,1,K_1*%
%TO.N,C1*%
X86598714Y-86644981D03*
D11*
%TO.P,D2,2,A_2*%
%TO.N,Net-(D2-A)*%
X94218714Y-86644981D03*
%TD*%
D10*
%TO.P,D12,1,K_1*%
%TO.N,C3*%
X127279400Y-86487000D03*
D11*
%TO.P,D12,2,A_2*%
%TO.N,Net-(D12-A)*%
X134899400Y-86487000D03*
%TD*%
D12*
%TO.P,SW13,1,1_1*%
%TO.N,R3*%
X134162142Y-108812942D03*
%TO.P,SW13,2,2_2*%
%TO.N,Net-(D13-A)*%
X127812142Y-111352942D03*
%TD*%
%TO.P,SW1,1,1_1*%
%TO.N,R1*%
X93327314Y-70566781D03*
%TO.P,SW1,2,2_2*%
%TO.N,Net-(D1-A)*%
X86977314Y-73106781D03*
%TD*%
%TO.P,SW7,1,1_1*%
%TO.N,R2*%
X113766090Y-89684117D03*
%TO.P,SW7,2,2_2*%
%TO.N,Net-(D7-A)*%
X107416090Y-92224117D03*
%TD*%
%TO.P,SW15,1,1_1*%
%TO.N,R5*%
X134162142Y-147141542D03*
%TO.P,SW15,2,2_2*%
%TO.N,Net-(D15-A)*%
X127812142Y-149681542D03*
%TD*%
D10*
%TO.P,D1,1,K_1*%
%TO.N,C1*%
X86395514Y-67366381D03*
D11*
%TO.P,D1,2,A_2*%
%TO.N,Net-(D1-A)*%
X94015514Y-67366381D03*
%TD*%
D10*
%TO.P,D9,1,K_1*%
%TO.N,C2*%
X106959400Y-124866400D03*
D11*
%TO.P,D9,2,A_2*%
%TO.N,Net-(D9-A)*%
X114579400Y-124866400D03*
%TD*%
%TO.P,C1,1*%
%TO.N,+3V3*%
X132023800Y-51612800D03*
%TO.P,C1,2*%
%TO.N,GND*%
X134523800Y-51612800D03*
%TD*%
D10*
%TO.P,D7,1,K_1*%
%TO.N,C2*%
X106959400Y-86563200D03*
D11*
%TO.P,D7,2,A_2*%
%TO.N,Net-(D7-A)*%
X114579400Y-86563200D03*
%TD*%
%TO.N,C3*%
D21*
X125723600Y-135801686D02*
X124504400Y-137020886D01*
X127279400Y-86487000D02*
X125723600Y-88042800D01*
X127013798Y-93515942D02*
X127716742Y-94218886D01*
X126073000Y-73474344D02*
X127742142Y-75143486D01*
X125723600Y-132140628D02*
X126019686Y-131844542D01*
X127742142Y-113395886D02*
X127742142Y-114389998D01*
X126019686Y-134244542D02*
X125723600Y-133948456D01*
X127742142Y-114389998D02*
X127039198Y-115092942D01*
X127013798Y-95915942D02*
X126019686Y-95915942D01*
X127716742Y-133541598D02*
X127013798Y-134244542D01*
X127279400Y-85687000D02*
X127279400Y-86487000D01*
X125723600Y-95619856D02*
X125723600Y-104108200D01*
X124504400Y-137020886D02*
X124504400Y-142017600D01*
X125723600Y-104108200D02*
X127279400Y-105664000D01*
X124504400Y-142017600D02*
X126479400Y-143992600D01*
X126479400Y-143992600D02*
X127279400Y-143992600D01*
X125723600Y-133948456D02*
X125723600Y-135801686D01*
X127716742Y-94218886D02*
X127716742Y-95212998D01*
X126019686Y-131844542D02*
X127013798Y-131844542D01*
X127013798Y-131844542D02*
X127716742Y-132547486D01*
X125723600Y-93812028D02*
X126019686Y-93515942D01*
X125723600Y-113014428D02*
X126045086Y-112692942D01*
X125723600Y-88042800D02*
X125723600Y-93812028D01*
X125723600Y-114771456D02*
X125723600Y-123183600D01*
X127381000Y-124841000D02*
X125723600Y-126498400D01*
X125723600Y-107219800D02*
X125723600Y-113014428D01*
X127039198Y-112692942D02*
X127742142Y-113395886D01*
X127039198Y-115092942D02*
X126045086Y-115092942D01*
X127742142Y-75143486D02*
X127742142Y-85224258D01*
X125723600Y-126498400D02*
X125723600Y-132140628D01*
X126019686Y-93515942D02*
X127013798Y-93515942D01*
X127013798Y-134244542D02*
X126019686Y-134244542D01*
X125723600Y-123183600D02*
X127381000Y-124841000D01*
X127716742Y-95212998D02*
X127013798Y-95915942D01*
X127279400Y-67538600D02*
X127279400Y-69577486D01*
X127742142Y-85224258D02*
X127279400Y-85687000D01*
X126045086Y-112692942D02*
X127039198Y-112692942D01*
X126073000Y-70783886D02*
X126073000Y-73474344D01*
X127279400Y-105664000D02*
X125723600Y-107219800D01*
X126019686Y-95915942D02*
X125723600Y-95619856D01*
X127716742Y-132547486D02*
X127716742Y-133541598D01*
X127279400Y-69577486D02*
X126073000Y-70783886D01*
X126045086Y-115092942D02*
X125723600Y-114771456D01*
%TO.N,R4*%
X124916742Y-116891258D02*
X113766600Y-128041400D01*
X125673000Y-65810714D02*
X124916742Y-66566973D01*
X125673000Y-33026200D02*
X125673000Y-65810714D01*
X124916742Y-66566973D02*
X124916742Y-116891258D01*
X126873000Y-31826200D02*
X125673000Y-33026200D01*
%TO.N,GND*%
X134493000Y-31826200D02*
X135693000Y-33026200D01*
X131953000Y-31826200D02*
X134493000Y-31826200D01*
X140792200Y-30505400D02*
X142113000Y-31826200D01*
X88062800Y-58152600D02*
X89962800Y-58152600D01*
X89962800Y-46952600D02*
X89962800Y-58152600D01*
X88303788Y-29402344D02*
X90203788Y-29402344D01*
X82703788Y-35002344D02*
X88303788Y-29402344D01*
X90203788Y-46711612D02*
X89962800Y-46952600D01*
X82462800Y-52552600D02*
X88062800Y-58152600D01*
X134493000Y-54737000D02*
X134493000Y-51643600D01*
X140792200Y-27355800D02*
X140792200Y-30505400D01*
X131953000Y-31826200D02*
X129529144Y-29402344D01*
X90203788Y-32340822D02*
X109399566Y-51536600D01*
X90203788Y-40602344D02*
X90203788Y-46711612D01*
X90203788Y-29402344D02*
X90203788Y-32340822D01*
X129529144Y-29402344D02*
X90203788Y-29402344D01*
X134523800Y-49575400D02*
X137033000Y-47066200D01*
X134523800Y-51612800D02*
X134523800Y-49575400D01*
X140913000Y-33026200D02*
X142113000Y-31826200D01*
X90203788Y-29402344D02*
X90203788Y-40602344D01*
X109399566Y-51536600D02*
X121259600Y-51536600D01*
X134493000Y-51643600D02*
X134523800Y-51612800D01*
X135693000Y-33026200D02*
X140913000Y-33026200D01*
%TO.N,R5*%
X125316742Y-135642858D02*
X125316742Y-66732658D01*
X113766600Y-147193000D02*
X125316742Y-135642858D01*
X125316742Y-66732658D02*
X126375943Y-65673457D01*
X128213000Y-33026200D02*
X129413000Y-31826200D01*
X126375943Y-49260314D02*
X128213000Y-47423257D01*
X128213000Y-47423257D02*
X128213000Y-33026200D01*
X126375943Y-65673457D02*
X126375943Y-49260314D01*
%TO.N,R3*%
X116803146Y-93564117D02*
X115809034Y-93564117D01*
X117106600Y-93867571D02*
X116803146Y-93564117D01*
X115106090Y-94267061D02*
X115106090Y-95261173D01*
X115106090Y-95261173D02*
X115809034Y-95964117D01*
X124333000Y-31826200D02*
X123120200Y-33039000D01*
X115809034Y-93564117D02*
X115106090Y-94267061D01*
X116803146Y-95964117D02*
X117106600Y-95660663D01*
X123120200Y-33039000D02*
X123120200Y-76799742D01*
X117106600Y-82813343D02*
X117106600Y-93867571D01*
X117106600Y-95660663D02*
X117106600Y-105524400D01*
X123120200Y-76799742D02*
X117106600Y-82813343D01*
X117106600Y-105524400D02*
X113766600Y-108864400D01*
X115809034Y-95964117D02*
X116803146Y-95964117D01*
%TO.N,R2*%
X116706600Y-86743607D02*
X116706600Y-82647657D01*
X120593000Y-47670044D02*
X120593000Y-33026200D01*
X113766090Y-89684117D02*
X116706600Y-86743607D01*
X122359600Y-76994656D02*
X122359600Y-49436644D01*
X122359600Y-49436644D02*
X120593000Y-47670044D01*
X116706600Y-82647657D02*
X122359600Y-76994656D01*
X120593000Y-33026200D02*
X121793000Y-31826200D01*
%TO.N,C2*%
X104946090Y-88576510D02*
X104946090Y-103701490D01*
X106959400Y-86563200D02*
X104946090Y-88576510D01*
X106959400Y-124866400D02*
X104946600Y-126879200D01*
X104946090Y-103701490D02*
X106959400Y-105714800D01*
X104946600Y-141725800D02*
X107188000Y-143967200D01*
X104946600Y-107727600D02*
X104946600Y-122853600D01*
X104935153Y-69613647D02*
X104935153Y-84538953D01*
X104946600Y-126879200D02*
X104946600Y-141725800D01*
X106959400Y-105714800D02*
X104946600Y-107727600D01*
X104946600Y-122853600D02*
X106959400Y-124866400D01*
X107137200Y-67411600D02*
X104935153Y-69613647D01*
X104935153Y-84538953D02*
X106959400Y-86563200D01*
%TD*%
M02*
