M48
; DRILL file KiCad 10.0.1 date 2026-07-17T03:26:30
; FORMAT={-:-/ absolute / metric / decimal}
; #@! TF.CreationDate,2026-07-17T03:26:30+05:30
; #@! TF.GenerationSoftware,Kicad,Pcbnew,10.0.1
; #@! TF.FileFunction,NonPlated,1,2,NPTH
FMAT,2
METRIC
; #@! TA.AperFunction,NonPlated,NPTH,ComponentDrill
T1C1.700
; #@! TA.AperFunction,NonPlated,NPTH,ComponentDrill
T2C2.200
; #@! TA.AperFunction,NonPlated,NPTH,ComponentDrill
T3C4.000
%
G90
G05
T1
X85.699Y-94.787
X85.7Y-152.248
X85.707Y-75.647
X85.71Y-113.95
X85.71Y-133.127
X95.859Y-94.787
X95.86Y-152.248
X95.867Y-75.647
X95.87Y-113.95
X95.87Y-133.127
X106.135Y-75.629
X106.146Y-94.764
X106.147Y-113.944
X106.147Y-133.121
X106.147Y-152.273
X116.295Y-75.629
X116.306Y-94.764
X116.307Y-113.944
X116.307Y-133.121
X116.307Y-152.273
X126.517Y-94.716
X126.517Y-133.045
X126.542Y-75.641
X126.542Y-113.893
X126.542Y-152.222
X136.677Y-94.716
X136.677Y-133.045
X136.702Y-75.641
X136.702Y-113.893
X136.702Y-152.222
T2
X81.204Y-27.902
X81.255Y-161.773
X140.665Y-161.696
T3
X90.779Y-94.787
X90.78Y-152.248
X90.787Y-75.647
X90.79Y-113.95
X90.79Y-133.127
X111.215Y-75.629
X111.226Y-94.764
X111.227Y-113.944
X111.227Y-133.121
X111.227Y-152.273
X131.597Y-94.716
X131.597Y-133.045
X131.622Y-75.641
X131.622Y-113.893
X131.622Y-152.222
M30
