%TF.GenerationSoftware,KiCad,Pcbnew,10.0.1*%
%TF.CreationDate,2026-07-17T03:26:24+05:30*%
%TF.ProjectId,macropad-v2,6d616372-6f70-4616-942d-76322e6b6963,rev?*%
%TF.SameCoordinates,Original*%
%TF.FileFunction,Soldermask,Top*%
%TF.FilePolarity,Negative*%
%FSLAX46Y46*%
G04 Gerber Fmt 4.6, Leading zero omitted, Abs format (unit mm)*
G04 Created by KiCad (PCBNEW 10.0.1) date 2026-07-17 03:26:24*
%MOMM*%
%LPD*%
G01*
G04 APERTURE LIST*
G04 Aperture macros list*
%AMRoundRect*
0 Rectangle with rounded corners*
0 $1 Rounding radius*
0 $2 $3 $4 $5 $6 $7 $8 $9 X,Y pos of 4 corners*
0 Add a 4 corners polygon primitive as box body*
4,1,4,$2,$3,$4,$5,$6,$7,$8,$9,$2,$3,0*
0 Add four circle primitives for the rounded corners*
1,1,$1+$1,$2,$3*
1,1,$1+$1,$4,$5*
1,1,$1+$1,$6,$7*
1,1,$1+$1,$8,$9*
0 Add four rect primitives between the rounded corners*
20,1,$1+$1,$2,$3,$4,$5,0*
20,1,$1+$1,$4,$5,$6,$7,0*
20,1,$1+$1,$6,$7,$8,$9,0*
20,1,$1+$1,$8,$9,$2,$3,0*%
G04 Aperture macros list end*
%ADD10RoundRect,0.250000X-0.550000X-0.550000X0.550000X-0.550000X0.550000X0.550000X-0.550000X0.550000X0*%
%ADD11C,1.600000*%
%ADD12C,1.700000*%
%ADD13C,4.000000*%
%ADD14C,2.200000*%
%ADD15RoundRect,0.250000X-0.350000X-0.625000X0.350000X-0.625000X0.350000X0.625000X-0.350000X0.625000X0*%
%ADD16O,1.200000X1.750000*%
%ADD17R,2.000000X2.000000*%
%ADD18C,2.000000*%
%ADD19R,3.200000X2.000000*%
G04 APERTURE END LIST*
D10*
%TO.C,D15*%
X127279400Y-143992600D03*
D11*
X134899400Y-143992600D03*
%TD*%
D12*
%TO.C,SW4*%
X85709714Y-133126981D03*
D13*
X90789714Y-133126981D03*
D12*
X95869714Y-133126981D03*
D14*
X93329714Y-128046981D03*
X86979714Y-130586981D03*
%TD*%
D10*
%TO.C,D3*%
X86674914Y-105796581D03*
D11*
X94294914Y-105796581D03*
%TD*%
%TO.C,R1*%
X121259600Y-51536600D03*
X128879600Y-51536600D03*
%TD*%
D15*
%TO.C,J2*%
X138792200Y-27432000D03*
D16*
X140792200Y-27432000D03*
%TD*%
D11*
%TO.C,R2*%
X138353800Y-49657000D03*
X138353800Y-57277000D03*
%TD*%
D17*
%TO.C,SW16*%
X82462800Y-50052600D03*
D18*
X82462800Y-55052600D03*
X82462800Y-52552600D03*
D19*
X89962800Y-46952600D03*
X89962800Y-58152600D03*
D18*
X96962800Y-55052600D03*
X96962800Y-50052600D03*
%TD*%
D12*
%TO.C,SW8*%
X106146600Y-113944400D03*
D13*
X111226600Y-113944400D03*
D12*
X116306600Y-113944400D03*
D14*
X113766600Y-108864400D03*
X107416600Y-111404400D03*
%TD*%
D10*
%TO.C,D4*%
X86573314Y-125024381D03*
D11*
X94193314Y-125024381D03*
%TD*%
D12*
%TO.C,SW2*%
X85698655Y-94787322D03*
D13*
X90778655Y-94787322D03*
D12*
X95858655Y-94787322D03*
D14*
X93318655Y-89707322D03*
X86968655Y-92247322D03*
%TD*%
D10*
%TO.C,D11*%
X127279400Y-67538600D03*
D11*
X134899400Y-67538600D03*
%TD*%
D12*
%TO.C,SW12*%
X126516742Y-94715942D03*
D13*
X131596742Y-94715942D03*
D12*
X136676742Y-94715942D03*
D14*
X134136742Y-89635942D03*
X127786742Y-92175942D03*
%TD*%
D10*
%TO.C,D16*%
X85918212Y-60915666D03*
D11*
X93538212Y-60915666D03*
%TD*%
D12*
%TO.C,SW9*%
X106146600Y-133121400D03*
D13*
X111226600Y-133121400D03*
D12*
X116306600Y-133121400D03*
D14*
X113766600Y-128041400D03*
X107416600Y-130581400D03*
%TD*%
D12*
%TO.C,SW3*%
X85709714Y-113949981D03*
D13*
X90789714Y-113949981D03*
D12*
X95869714Y-113949981D03*
D14*
X93329714Y-108869981D03*
X86979714Y-111409981D03*
%TD*%
D10*
%TO.C,D8*%
X106959400Y-105714800D03*
D11*
X114579400Y-105714800D03*
%TD*%
D14*
%TO.C,REF\u002A\u002A*%
X81203788Y-27902344D03*
%TD*%
D10*
%TO.C,D17*%
X85941030Y-43393408D03*
D11*
X93561030Y-43393408D03*
%TD*%
D12*
%TO.C,SW11*%
X126542142Y-75640542D03*
D13*
X131622142Y-75640542D03*
D12*
X136702142Y-75640542D03*
D14*
X134162142Y-70560542D03*
X127812142Y-73100542D03*
%TD*%
D10*
%TO.C,D13*%
X127279400Y-105664000D03*
D11*
X134899400Y-105664000D03*
%TD*%
D14*
%TO.C,REF\u002A\u002A*%
X140665200Y-161696400D03*
%TD*%
D11*
%TO.C,C2*%
X131993000Y-54737000D03*
X134493000Y-54737000D03*
%TD*%
D14*
%TO.C,REF\u002A\u002A*%
X81254600Y-161772600D03*
%TD*%
D10*
%TO.C,D10*%
X107188000Y-143967200D03*
D11*
X114808000Y-143967200D03*
%TD*%
D10*
%TO.C,D5*%
X86625793Y-144196128D03*
D11*
X94245793Y-144196128D03*
%TD*%
D10*
%TO.C,D14*%
X127381000Y-124841000D03*
D11*
X135001000Y-124841000D03*
%TD*%
D12*
%TO.C,SW10*%
X106146600Y-152273000D03*
D13*
X111226600Y-152273000D03*
D12*
X116306600Y-152273000D03*
D14*
X113766600Y-147193000D03*
X107416600Y-149733000D03*
%TD*%
D12*
%TO.C,SW14*%
X126516742Y-133044542D03*
D13*
X131596742Y-133044542D03*
D12*
X136676742Y-133044542D03*
D14*
X134136742Y-127964542D03*
X127786742Y-130504542D03*
%TD*%
D12*
%TO.C,SW6*%
X106135153Y-75628864D03*
D13*
X111215153Y-75628864D03*
D12*
X116295153Y-75628864D03*
D14*
X113755153Y-70548864D03*
X107405153Y-73088864D03*
%TD*%
D17*
%TO.C,SW17*%
X82703788Y-32502344D03*
D18*
X82703788Y-37502344D03*
X82703788Y-35002344D03*
D19*
X90203788Y-29402344D03*
X90203788Y-40602344D03*
D18*
X97203788Y-37502344D03*
X97203788Y-32502344D03*
%TD*%
D10*
%TO.C,D6*%
X107137200Y-67411600D03*
D11*
X114757200Y-67411600D03*
%TD*%
D12*
%TO.C,SW5*%
X85699600Y-152247600D03*
D13*
X90779600Y-152247600D03*
D12*
X95859600Y-152247600D03*
D14*
X93319600Y-147167600D03*
X86969600Y-149707600D03*
%TD*%
D10*
%TO.C,D2*%
X86598714Y-86644981D03*
D11*
X94218714Y-86644981D03*
%TD*%
D10*
%TO.C,D12*%
X127279400Y-86487000D03*
D11*
X134899400Y-86487000D03*
%TD*%
D12*
%TO.C,SW13*%
X126542142Y-113892942D03*
D13*
X131622142Y-113892942D03*
D12*
X136702142Y-113892942D03*
D14*
X134162142Y-108812942D03*
X127812142Y-111352942D03*
%TD*%
D12*
%TO.C,SW1*%
X85707314Y-75646781D03*
D13*
X90787314Y-75646781D03*
D12*
X95867314Y-75646781D03*
D14*
X93327314Y-70566781D03*
X86977314Y-73106781D03*
%TD*%
D12*
%TO.C,SW7*%
X106146090Y-94764117D03*
D13*
X111226090Y-94764117D03*
D12*
X116306090Y-94764117D03*
D14*
X113766090Y-89684117D03*
X107416090Y-92224117D03*
%TD*%
D12*
%TO.C,SW15*%
X126542142Y-152221542D03*
D13*
X131622142Y-152221542D03*
D12*
X136702142Y-152221542D03*
D14*
X134162142Y-147141542D03*
X127812142Y-149681542D03*
%TD*%
D10*
%TO.C,D1*%
X86395514Y-67366381D03*
D11*
X94015514Y-67366381D03*
%TD*%
D10*
%TO.C,D9*%
X106959400Y-124866400D03*
D11*
X114579400Y-124866400D03*
%TD*%
%TO.C,C1*%
X132023800Y-51612800D03*
X134523800Y-51612800D03*
%TD*%
D10*
%TO.C,D7*%
X106959400Y-86563200D03*
D11*
X114579400Y-86563200D03*
%TD*%
M02*
