M48
; DRILL file KiCad 10.0.1 date 2026-07-17T03:26:30
; FORMAT={-:-/ absolute / metric / decimal}
; #@! TF.CreationDate,2026-07-17T03:26:30+05:30
; #@! TF.GenerationSoftware,Kicad,Pcbnew,10.0.1
; #@! TF.FileFunction,Plated,1,2,PTH
FMAT,2
METRIC
; #@! TA.AperFunction,Plated,PTH,ComponentDrill
T1C0.750
; #@! TA.AperFunction,Plated,PTH,ComponentDrill
T2C0.800
; #@! TA.AperFunction,Plated,PTH,ComponentDrill
T3C1.000
; #@! TA.AperFunction,Plated,PTH,ComponentDrill
T4C1.500
%
G90
G05
T1
X138.792Y-27.432
X140.792Y-27.432
T2
X85.918Y-60.916
X85.941Y-43.393
X86.396Y-67.366
X86.573Y-125.024
X86.599Y-86.645
X86.626Y-144.196
X86.675Y-105.797
X93.538Y-60.916
X93.561Y-43.393
X94.016Y-67.366
X94.193Y-125.024
X94.219Y-86.645
X94.246Y-144.196
X94.295Y-105.797
X106.959Y-86.563
X106.959Y-105.715
X106.959Y-124.866
X107.137Y-67.412
X107.188Y-143.967
X114.579Y-86.563
X114.579Y-105.715
X114.579Y-124.866
X114.757Y-67.412
X114.808Y-143.967
X121.26Y-51.537
X127.279Y-67.539
X127.279Y-86.487
X127.279Y-105.664
X127.279Y-143.993
X127.381Y-124.841
X128.88Y-51.537
X131.993Y-54.737
X132.024Y-51.613
X134.493Y-54.737
X134.524Y-51.613
X134.899Y-67.539
X134.899Y-86.487
X134.899Y-105.664
X134.899Y-143.993
X135.001Y-124.841
X138.354Y-49.657
X138.354Y-57.277
T3
X82.463Y-50.053
X82.463Y-52.553
X82.463Y-55.053
X82.704Y-32.502
X82.704Y-35.002
X82.704Y-37.502
X96.963Y-50.053
X96.963Y-55.053
X97.204Y-32.502
X97.204Y-37.502
X111.633Y-31.826
X111.633Y-47.066
X114.173Y-31.826
X114.173Y-47.066
X116.713Y-31.826
X116.713Y-34.366
X116.713Y-36.906
X116.713Y-39.446
X116.713Y-47.066
X119.253Y-31.826
X119.253Y-47.066
X121.793Y-31.826
X121.793Y-47.066
X124.333Y-31.826
X124.333Y-47.066
X126.873Y-31.826
X126.873Y-47.066
X129.413Y-31.826
X129.413Y-47.066
X131.953Y-31.826
X131.953Y-47.066
X134.493Y-31.826
X134.493Y-47.066
X137.033Y-31.826
X137.033Y-47.066
X139.573Y-31.826
X139.573Y-47.066
X142.113Y-31.826
X142.113Y-47.066
T4
X86.969Y-92.247
X86.97Y-149.708
X86.977Y-73.107
X86.98Y-111.41
X86.98Y-130.587
X93.319Y-89.707
X93.32Y-147.168
X93.327Y-70.567
X93.33Y-108.87
X93.33Y-128.047
X107.405Y-73.089
X107.416Y-92.224
X107.417Y-111.404
X107.417Y-130.581
X107.417Y-149.733
X113.755Y-70.549
X113.766Y-89.684
X113.767Y-108.864
X113.767Y-128.041
X113.767Y-147.193
X127.787Y-92.176
X127.787Y-130.505
X127.812Y-73.101
X127.812Y-111.353
X127.812Y-149.682
X134.137Y-89.636
X134.137Y-127.965
X134.162Y-70.561
X134.162Y-108.813
X134.162Y-147.142
T4
G00X89.313Y-46.953
M15
G01X90.613Y-46.953
M16
G05
G00X89.313Y-58.153
M15
G01X90.613Y-58.153
M16
G05
G00X89.554Y-29.402
M15
G01X90.854Y-29.402
M16
G05
G00X89.554Y-40.602
M15
G01X90.854Y-40.602
M16
G05
M30
