M48
; DRILL file KiCad 10.0.1 date 2026-07-17T03:30:47
; FORMAT={-:-/ absolute / metric / decimal}
; #@! TF.CreationDate,2026-07-17T03:30:47+05:30
; #@! TF.GenerationSoftware,Kicad,Pcbnew,10.0.1
; #@! TF.FileFunction,NonPlated,1,2,NPTH
FMAT,2
METRIC
; #@! TA.AperFunction,NonPlated,NPTH,ComponentDrill
T1C1.700
; #@! TA.AperFunction,NonPlated,NPTH,ComponentDrill
T2C2.200
; #@! TA.AperFunction,NonPlated,NPTH,ComponentDrill
T3C3.050
; #@! TA.AperFunction,NonPlated,NPTH,ComponentDrill
T4C4.000
%
G90
G05
T1
X52.273Y-41.338
X52.273Y-65.151
X54.654Y-141.351
X57.036Y-84.201
X59.417Y-103.251
X62.433Y-41.338
X62.433Y-65.151
X64.179Y-122.301
X64.814Y-141.351
X67.196Y-84.201
X69.577Y-103.251
X71.323Y-65.151
X74.339Y-122.301
X76.086Y-41.338
X80.848Y-84.201
X81.483Y-65.151
X85.611Y-103.251
X86.246Y-41.338
X90.373Y-65.151
X91.008Y-84.201
X95.136Y-41.338
X95.136Y-122.301
X95.771Y-103.251
X99.898Y-84.201
X100.533Y-65.151
X104.661Y-103.251
X105.296Y-41.338
X105.296Y-122.301
X109.423Y-65.151
X110.058Y-84.201
X114.186Y-41.338
X114.186Y-122.301
X114.821Y-103.251
X118.948Y-84.201
X119.583Y-65.151
X123.711Y-103.251
X124.346Y-41.338
X124.346Y-122.301
X128.473Y-65.151
X129.108Y-84.201
X133.236Y-41.338
X133.236Y-122.301
X133.871Y-103.251
X137.998Y-84.201
X138.633Y-65.151
X142.761Y-103.251
X143.396Y-41.338
X143.396Y-122.301
X147.523Y-65.151
X148.158Y-84.201
X152.286Y-122.301
X152.921Y-103.251
X157.048Y-41.338
X157.048Y-84.201
X157.683Y-65.151
X161.811Y-103.251
X162.446Y-122.301
X166.573Y-65.151
X167.208Y-41.338
X167.208Y-84.201
X171.336Y-122.301
X171.971Y-103.251
X173.717Y-141.351
X176.098Y-41.338
X176.098Y-84.201
X176.733Y-65.151
X180.861Y-103.251
X181.496Y-122.301
X183.877Y-141.351
X185.623Y-65.151
X186.258Y-41.338
X186.258Y-84.201
X190.386Y-122.301
X191.021Y-103.251
X195.148Y-41.338
X195.148Y-84.201
X195.783Y-65.151
X199.911Y-103.251
X200.546Y-122.301
X204.673Y-65.151
X205.308Y-41.338
X205.308Y-84.201
X209.436Y-122.301
X210.071Y-103.251
X214.198Y-41.338
X214.198Y-84.201
X214.833Y-65.151
X218.961Y-103.251
X219.596Y-122.301
X223.723Y-65.151
X224.358Y-41.338
X224.358Y-84.201
X228.486Y-122.301
X229.121Y-103.251
X233.248Y-84.201
X233.883Y-65.151
X238.011Y-41.338
X238.011Y-103.251
X238.646Y-122.301
X242.773Y-65.151
X243.408Y-84.201
X247.536Y-122.301
X248.171Y-41.338
X248.171Y-103.251
X252.298Y-84.201
X252.933Y-65.151
X257.061Y-41.338
X257.061Y-103.251
X257.696Y-122.301
X261.823Y-65.151
X262.458Y-84.201
X266.586Y-122.301
X267.221Y-41.338
X267.221Y-103.251
X271.348Y-84.201
X271.983Y-65.151
X276.111Y-41.338
X276.111Y-103.251
X276.746Y-122.301
X280.873Y-65.151
X281.508Y-84.201
X286.271Y-41.338
X286.271Y-103.251
X290.398Y-84.201
X291.033Y-65.151
X292.779Y-122.301
X295.161Y-41.338
X300.558Y-84.201
X302.939Y-122.301
X305.321Y-41.338
X307.067Y-103.251
X309.448Y-65.151
X314.211Y-41.338
X314.211Y-84.201
X317.227Y-103.251
X318.973Y-146.113
X319.608Y-65.151
X324.371Y-41.338
X324.371Y-84.201
X329.133Y-146.113
X338.023Y-127.063
X338.023Y-146.113
X348.183Y-127.063
X348.183Y-146.113
X357.073Y-146.113
X361.836Y-65.151
X361.836Y-84.201
X361.836Y-103.251
X361.836Y-122.301
X367.233Y-146.113
X371.996Y-65.151
X371.996Y-84.201
X371.996Y-103.251
X371.996Y-122.301
T2
X20.574Y-25.984
X20.853Y-160.172
X379.324Y-159.995
X379.451Y-26.264
T3
X57.359Y-115.301
X81.159Y-115.301
X128.797Y-134.351
X228.797Y-134.351
X285.959Y-115.301
X300.247Y-96.251
X302.628Y-58.151
X309.759Y-115.301
X324.047Y-96.251
X326.428Y-58.151
T4
X57.353Y-41.338
X57.353Y-65.151
X57.359Y-130.541
X59.734Y-141.351
X62.116Y-84.201
X64.497Y-103.251
X69.259Y-122.301
X76.403Y-65.151
X81.159Y-130.541
X81.166Y-41.338
X83.547Y-141.351
X85.928Y-84.201
X90.691Y-103.251
X95.453Y-65.151
X100.216Y-41.338
X100.216Y-122.301
X104.978Y-84.201
X107.359Y-141.351
X109.741Y-103.251
X114.503Y-65.151
X119.266Y-41.338
X119.266Y-122.301
X124.028Y-84.201
X128.791Y-103.251
X128.797Y-149.591
X133.553Y-65.151
X138.316Y-41.338
X138.316Y-122.301
X143.078Y-84.201
X147.841Y-103.251
X152.603Y-65.151
X157.366Y-122.301
X162.128Y-41.338
X162.128Y-84.201
X166.891Y-103.251
X171.653Y-65.151
X176.416Y-122.301
X178.797Y-141.351
X181.178Y-41.338
X181.178Y-84.201
X185.941Y-103.251
X190.703Y-65.151
X195.466Y-122.301
X200.228Y-41.338
X200.228Y-84.201
X204.991Y-103.251
X209.753Y-65.151
X214.516Y-122.301
X219.278Y-41.338
X219.278Y-84.201
X224.041Y-103.251
X228.797Y-149.591
X228.803Y-65.151
X233.566Y-122.301
X238.328Y-84.201
X243.091Y-41.338
X243.091Y-103.251
X247.853Y-65.151
X250.234Y-141.351
X252.616Y-122.301
X257.378Y-84.201
X262.141Y-41.338
X262.141Y-103.251
X266.903Y-65.151
X271.666Y-122.301
X274.047Y-141.351
X276.428Y-84.201
X281.191Y-41.338
X281.191Y-103.251
X285.953Y-65.151
X285.959Y-130.541
X295.478Y-84.201
X297.859Y-122.301
X297.859Y-141.351
X300.241Y-41.338
X300.247Y-111.491
X302.628Y-73.391
X309.759Y-130.541
X312.147Y-103.251
X314.528Y-65.151
X319.291Y-41.338
X319.291Y-84.201
X324.047Y-111.491
X324.053Y-146.113
X326.428Y-73.391
X343.103Y-127.063
X343.103Y-146.113
X362.153Y-146.113
X366.916Y-65.151
X366.916Y-84.201
X366.916Y-103.251
X366.916Y-122.301
M30
