%TF.GenerationSoftware,KiCad,Pcbnew,10.0.1*%
%TF.CreationDate,2026-07-17T03:30:44+05:30*%
%TF.ProjectId,keeb_V1,6b656562-5f56-4312-9e6b-696361645f70,rev?*%
%TF.SameCoordinates,Original*%
%TF.FileFunction,Soldermask,Top*%
%TF.FilePolarity,Negative*%
%FSLAX46Y46*%
G04 Gerber Fmt 4.6, Leading zero omitted, Abs format (unit mm)*
G04 Created by KiCad (PCBNEW 10.0.1) date 2026-07-17 03:30:44*
%MOMM*%
%LPD*%
G01*
G04 APERTURE LIST*
G04 Aperture macros list*
%AMRoundRect*
0 Rectangle with rounded corners*
0 $1 Rounding radius*
0 $2 $3 $4 $5 $6 $7 $8 $9 X,Y pos of 4 corners*
0 Add a 4 corners polygon primitive as box body*
4,1,4,$2,$3,$4,$5,$6,$7,$8,$9,$2,$3,0*
0 Add four circle primitives for the rounded corners*
1,1,$1+$1,$2,$3*
1,1,$1+$1,$4,$5*
1,1,$1+$1,$6,$7*
1,1,$1+$1,$8,$9*
0 Add four rect primitives between the rounded corners*
20,1,$1+$1,$2,$3,$4,$5,0*
20,1,$1+$1,$4,$5,$6,$7,0*
20,1,$1+$1,$6,$7,$8,$9,0*
20,1,$1+$1,$8,$9,$2,$3,0*%
G04 Aperture macros list end*
%ADD10RoundRect,0.250000X0.550000X0.550000X-0.550000X0.550000X-0.550000X-0.550000X0.550000X-0.550000X0*%
%ADD11C,1.600000*%
%ADD12C,2.200000*%
%ADD13C,1.700000*%
%ADD14C,4.000000*%
%ADD15C,3.050000*%
%ADD16RoundRect,0.250000X-0.550000X-0.550000X0.550000X-0.550000X0.550000X0.550000X-0.550000X0.550000X0*%
%ADD17RoundRect,0.250000X-1.500000X-0.650000X1.500000X-0.650000X1.500000X0.650000X-1.500000X0.650000X0*%
%ADD18R,1.300000X1.300000*%
%ADD19C,1.300000*%
%ADD20RoundRect,0.162500X0.617500X0.162500X-0.617500X0.162500X-0.617500X-0.162500X0.617500X-0.162500X0*%
%ADD21RoundRect,0.249999X-0.450001X-1.850001X0.450001X-1.850001X0.450001X1.850001X-0.450001X1.850001X0*%
%ADD22RoundRect,0.250000X-0.350000X-0.625000X0.350000X-0.625000X0.350000X0.625000X-0.350000X0.625000X0*%
%ADD23O,1.200000X1.750000*%
%ADD24R,2.000000X2.000000*%
%ADD25C,2.000000*%
%ADD26R,3.200000X2.000000*%
G04 APERTURE END LIST*
D10*
%TO.C,D59*%
X285039798Y-95330157D03*
D11*
X277419798Y-95330157D03*
%TD*%
D12*
%TO.C,REF\u002A\u002A*%
X379450600Y-26263600D03*
%TD*%
D10*
%TO.C,D28*%
X270752298Y-57230157D03*
D11*
X263132298Y-57230157D03*
%TD*%
D10*
%TO.C,D58*%
X265989798Y-95330157D03*
D11*
X258369798Y-95330157D03*
%TD*%
D10*
%TO.C,D46*%
X323138800Y-76225400D03*
D11*
X315518800Y-76225400D03*
%TD*%
D13*
%TO.C,SW44*%
X290398200Y-84201000D03*
D14*
X295478200Y-84201000D03*
D13*
X300558200Y-84201000D03*
D12*
X298018200Y-79121000D03*
X291668200Y-81661000D03*
%TD*%
D10*
%TO.C,D5*%
X142164798Y-33417657D03*
D11*
X134544798Y-33417657D03*
%TD*%
D10*
%TO.C,D56*%
X227889798Y-95330157D03*
D11*
X220269798Y-95330157D03*
%TD*%
D13*
%TO.C,SW52*%
X161810700Y-103251000D03*
D14*
X166890700Y-103251000D03*
D13*
X171970700Y-103251000D03*
D12*
X169430700Y-98171000D03*
X163080700Y-100711000D03*
%TD*%
D10*
%TO.C,D55*%
X208839798Y-95330157D03*
D11*
X201219798Y-95330157D03*
%TD*%
D10*
%TO.C,D24*%
X194552298Y-57230157D03*
D11*
X186932298Y-57230157D03*
%TD*%
D15*
%TO.C,SW78*%
X128796950Y-134351000D03*
D14*
X128796950Y-149591000D03*
D13*
X173716950Y-141351000D03*
D14*
X178796950Y-141351000D03*
D13*
X183876950Y-141351000D03*
D15*
X228796950Y-134351000D03*
D14*
X228796950Y-149591000D03*
D12*
X181336950Y-136271000D03*
X174986950Y-138811000D03*
%TD*%
D13*
%TO.C,SW35*%
X118948200Y-84201000D03*
D14*
X124028200Y-84201000D03*
D13*
X129108200Y-84201000D03*
D12*
X126568200Y-79121000D03*
X120218200Y-81661000D03*
%TD*%
D10*
%TO.C,D67*%
X180264798Y-114380157D03*
D11*
X172644798Y-114380157D03*
%TD*%
D10*
%TO.C,D66*%
X161214798Y-114380157D03*
D11*
X153594798Y-114380157D03*
%TD*%
D13*
%TO.C,SW33*%
X80848200Y-84201000D03*
D14*
X85928200Y-84201000D03*
D13*
X91008200Y-84201000D03*
D12*
X88468200Y-79121000D03*
X82118200Y-81661000D03*
%TD*%
D13*
%TO.C,SW51*%
X142760700Y-103251000D03*
D14*
X147840700Y-103251000D03*
D13*
X152920700Y-103251000D03*
D12*
X150380700Y-98171000D03*
X144030700Y-100711000D03*
%TD*%
D10*
%TO.C,D6*%
X165977298Y-33417657D03*
D11*
X158357298Y-33417657D03*
%TD*%
D10*
%TO.C,D3*%
X104064798Y-33417657D03*
D11*
X96444798Y-33417657D03*
%TD*%
D16*
%TO.C,U4*%
X340106000Y-61785500D03*
D11*
X340106000Y-64325500D03*
X340106000Y-66865500D03*
X340106000Y-69405500D03*
X340106000Y-71945500D03*
X340106000Y-74485500D03*
X340106000Y-77025500D03*
X340106000Y-79565500D03*
X350266000Y-79565500D03*
X350266000Y-77025500D03*
X350266000Y-74485500D03*
X350266000Y-71945500D03*
X350266000Y-69405500D03*
X350266000Y-66865500D03*
X350266000Y-64325500D03*
X350266000Y-61785500D03*
%TD*%
D13*
%TO.C,SW84*%
X357073200Y-146113500D03*
D14*
X362153200Y-146113500D03*
D13*
X367233200Y-146113500D03*
D12*
X364693200Y-141033500D03*
X358343200Y-143573500D03*
%TD*%
D13*
%TO.C,SW13*%
X295160700Y-41338500D03*
D14*
X300240700Y-41338500D03*
D13*
X305320700Y-41338500D03*
D12*
X302780700Y-36258500D03*
X296430700Y-38798500D03*
%TD*%
D10*
%TO.C,D60*%
X315849000Y-94856300D03*
D11*
X308229000Y-94856300D03*
%TD*%
D13*
%TO.C,SW8*%
X195148200Y-41338500D03*
D14*
X200228200Y-41338500D03*
D13*
X205308200Y-41338500D03*
D12*
X202768200Y-36258500D03*
X196418200Y-38798500D03*
%TD*%
D13*
%TO.C,SW69*%
X228485700Y-122301000D03*
D14*
X233565700Y-122301000D03*
D13*
X238645700Y-122301000D03*
D12*
X236105700Y-117221000D03*
X229755700Y-119761000D03*
%TD*%
D10*
%TO.C,D29*%
X289802298Y-57230157D03*
D11*
X282182298Y-57230157D03*
%TD*%
D13*
%TO.C,SW46*%
X361835700Y-84201000D03*
D14*
X366915700Y-84201000D03*
D13*
X371995700Y-84201000D03*
D12*
X369455700Y-79121000D03*
X363105700Y-81661000D03*
%TD*%
D14*
%TO.C,SW76*%
X83546950Y-141351000D03*
D12*
X86086950Y-136271000D03*
X79736950Y-138811000D03*
%TD*%
D13*
%TO.C,SW64*%
X133235700Y-122301000D03*
D14*
X138315700Y-122301000D03*
D13*
X143395700Y-122301000D03*
D12*
X140855700Y-117221000D03*
X134505700Y-119761000D03*
%TD*%
D10*
%TO.C,D61*%
X370764798Y-95330157D03*
D11*
X363144798Y-95330157D03*
%TD*%
D12*
%TO.C,REF\u002A\u002A*%
X20853400Y-160172400D03*
%TD*%
D13*
%TO.C,SW32*%
X57035700Y-84201000D03*
D14*
X62115700Y-84201000D03*
D13*
X67195700Y-84201000D03*
D12*
X64655700Y-79121000D03*
X58305700Y-81661000D03*
%TD*%
D10*
%TO.C,D18*%
X80252298Y-57230157D03*
D11*
X72632298Y-57230157D03*
%TD*%
D10*
%TO.C,D79*%
X182646048Y-133430157D03*
D11*
X175026048Y-133430157D03*
%TD*%
D13*
%TO.C,SW17*%
X52273200Y-65151000D03*
D14*
X57353200Y-65151000D03*
D13*
X62433200Y-65151000D03*
D12*
X59893200Y-60071000D03*
X53543200Y-62611000D03*
%TD*%
D14*
%TO.C,SW77*%
X107359450Y-141351000D03*
D12*
X109899450Y-136271000D03*
X103549450Y-138811000D03*
%TD*%
D13*
%TO.C,SW58*%
X276110700Y-103251000D03*
D14*
X281190700Y-103251000D03*
D13*
X286270700Y-103251000D03*
D12*
X283730700Y-98171000D03*
X277380700Y-100711000D03*
%TD*%
D10*
%TO.C,D68*%
X199314798Y-114380157D03*
D11*
X191694798Y-114380157D03*
%TD*%
D13*
%TO.C,SW37*%
X157048200Y-84201000D03*
D14*
X162128200Y-84201000D03*
D13*
X167208200Y-84201000D03*
D12*
X164668200Y-79121000D03*
X158318200Y-81661000D03*
%TD*%
D10*
%TO.C,D14*%
X323139798Y-33417657D03*
D11*
X315519798Y-33417657D03*
%TD*%
D10*
%TO.C,D31*%
X370764798Y-57230157D03*
D11*
X363144798Y-57230157D03*
%TD*%
D10*
%TO.C,D36*%
X127877298Y-76280157D03*
D11*
X120257298Y-76280157D03*
%TD*%
D10*
%TO.C,D65*%
X142164798Y-114380157D03*
D11*
X134544798Y-114380157D03*
%TD*%
D13*
%TO.C,SW18*%
X71323200Y-65151000D03*
D14*
X76403200Y-65151000D03*
D13*
X81483200Y-65151000D03*
D12*
X78943200Y-60071000D03*
X72593200Y-62611000D03*
%TD*%
D13*
%TO.C,SW4*%
X114185700Y-41338500D03*
D14*
X119265700Y-41338500D03*
D13*
X124345700Y-41338500D03*
D12*
X121805700Y-36258500D03*
X115455700Y-38798500D03*
%TD*%
D10*
%TO.C,D13*%
X304089798Y-33417657D03*
D11*
X296469798Y-33417657D03*
%TD*%
D17*
%TO.C,D32*%
X23977600Y-118364000D03*
X28977600Y-118364000D03*
%TD*%
D13*
%TO.C,SW40*%
X214198200Y-84201000D03*
D14*
X219278200Y-84201000D03*
D13*
X224358200Y-84201000D03*
D12*
X221818200Y-79121000D03*
X215468200Y-81661000D03*
%TD*%
D10*
%TO.C,D30*%
X318377298Y-57230157D03*
D11*
X310757298Y-57230157D03*
%TD*%
D15*
%TO.C,SW30*%
X302628200Y-58151000D03*
D14*
X302628200Y-73391000D03*
D13*
X309448200Y-65151000D03*
D14*
X314528200Y-65151000D03*
D13*
X319608200Y-65151000D03*
D15*
X326428200Y-58151000D03*
D14*
X326428200Y-73391000D03*
D12*
X317068200Y-60071000D03*
X310718200Y-62611000D03*
%TD*%
D13*
%TO.C,SW29*%
X280873200Y-65151000D03*
D14*
X285953200Y-65151000D03*
D13*
X291033200Y-65151000D03*
D12*
X288493200Y-60071000D03*
X282143200Y-62611000D03*
%TD*%
D10*
%TO.C,D63*%
X104064798Y-114380157D03*
D11*
X96444798Y-114380157D03*
%TD*%
D10*
%TO.C,D73*%
X313817000Y-123647200D03*
D11*
X306197000Y-123647200D03*
%TD*%
D18*
%TO.C,J2*%
X380884200Y-86969600D03*
D19*
X380884200Y-89509600D03*
%TD*%
D13*
%TO.C,SW36*%
X137998200Y-84201000D03*
D14*
X143078200Y-84201000D03*
D13*
X148158200Y-84201000D03*
D12*
X145618200Y-79121000D03*
X139268200Y-81661000D03*
%TD*%
D13*
%TO.C,SW49*%
X104660700Y-103251000D03*
D14*
X109740700Y-103251000D03*
D13*
X114820700Y-103251000D03*
D12*
X112280700Y-98171000D03*
X105930700Y-100711000D03*
%TD*%
D11*
%TO.C,R2*%
X50673000Y-29464000D03*
X43053000Y-29464000D03*
%TD*%
D13*
%TO.C,SW24*%
X185623200Y-65151000D03*
D14*
X190703200Y-65151000D03*
D13*
X195783200Y-65151000D03*
D12*
X193243200Y-60071000D03*
X186893200Y-62611000D03*
%TD*%
D10*
%TO.C,D70*%
X237414798Y-114380157D03*
D11*
X229794798Y-114380157D03*
%TD*%
D13*
%TO.C,SW74*%
X338023200Y-127063500D03*
D14*
X343103200Y-127063500D03*
D13*
X348183200Y-127063500D03*
D12*
X345643200Y-121983500D03*
X339293200Y-124523500D03*
%TD*%
D10*
%TO.C,D76*%
X70688200Y-133045200D03*
D11*
X63068200Y-133045200D03*
%TD*%
D13*
%TO.C,SW60*%
X361835700Y-103251000D03*
D14*
X366915700Y-103251000D03*
D13*
X371995700Y-103251000D03*
D12*
X369455700Y-98171000D03*
X363105700Y-100711000D03*
%TD*%
D16*
%TO.C,D16*%
X360476800Y-32626300D03*
D11*
X368096800Y-32626300D03*
%TD*%
D15*
%TO.C,SW61*%
X57359450Y-115301000D03*
D14*
X57359450Y-130541000D03*
D13*
X64179450Y-122301000D03*
D14*
X69259450Y-122301000D03*
D13*
X74339450Y-122301000D03*
D15*
X81159450Y-115301000D03*
D14*
X81159450Y-130541000D03*
D12*
X71799450Y-117221000D03*
X65449450Y-119761000D03*
%TD*%
D20*
%TO.C,U3*%
X28239766Y-101965608D03*
X28239766Y-101015608D03*
X28239766Y-100065608D03*
X25539766Y-100065608D03*
X25539766Y-101015608D03*
X25539766Y-101965608D03*
%TD*%
D10*
%TO.C,D54*%
X189789798Y-95330157D03*
D11*
X182169798Y-95330157D03*
%TD*%
D13*
%TO.C,SW75*%
X54654450Y-141351000D03*
D14*
X59734450Y-141351000D03*
D13*
X64814450Y-141351000D03*
D12*
X62274450Y-136271000D03*
X55924450Y-138811000D03*
%TD*%
D10*
%TO.C,D45*%
X299327298Y-76280157D03*
D11*
X291707298Y-76280157D03*
%TD*%
D13*
%TO.C,SW54*%
X199910700Y-103251000D03*
D14*
X204990700Y-103251000D03*
D13*
X210070700Y-103251000D03*
D12*
X207530700Y-98171000D03*
X201180700Y-100711000D03*
%TD*%
D13*
%TO.C,SW5*%
X133235700Y-41338500D03*
D14*
X138315700Y-41338500D03*
D13*
X143395700Y-41338500D03*
D12*
X140855700Y-36258500D03*
X134505700Y-38798500D03*
%TD*%
D15*
%TO.C,SW59*%
X300246950Y-96251000D03*
D14*
X300246950Y-111491000D03*
D13*
X307066950Y-103251000D03*
D14*
X312146950Y-103251000D03*
D13*
X317226950Y-103251000D03*
D15*
X324046950Y-96251000D03*
D14*
X324046950Y-111491000D03*
D12*
X314686950Y-98171000D03*
X308336950Y-100711000D03*
%TD*%
D13*
%TO.C,SW28*%
X261823200Y-65151000D03*
D14*
X266903200Y-65151000D03*
D13*
X271983200Y-65151000D03*
D12*
X269443200Y-60071000D03*
X263093200Y-62611000D03*
%TD*%
D10*
%TO.C,D75*%
X346952298Y-119142657D03*
D11*
X339332298Y-119142657D03*
%TD*%
D13*
%TO.C,SW27*%
X242773200Y-65151000D03*
D14*
X247853200Y-65151000D03*
D13*
X252933200Y-65151000D03*
D12*
X250393200Y-60071000D03*
X244043200Y-62611000D03*
%TD*%
D11*
%TO.C,R1*%
X43205400Y-25349200D03*
X50825400Y-25349200D03*
%TD*%
D13*
%TO.C,SW19*%
X90373200Y-65151000D03*
D14*
X95453200Y-65151000D03*
D13*
X100533200Y-65151000D03*
D12*
X97993200Y-60071000D03*
X91643200Y-62611000D03*
%TD*%
D10*
%TO.C,D19*%
X99302298Y-57230157D03*
D11*
X91682298Y-57230157D03*
%TD*%
D13*
%TO.C,SW56*%
X238010700Y-103251000D03*
D14*
X243090700Y-103251000D03*
D13*
X248170700Y-103251000D03*
D12*
X245630700Y-98171000D03*
X239280700Y-100711000D03*
%TD*%
D10*
%TO.C,D34*%
X89777298Y-76280157D03*
D11*
X82157298Y-76280157D03*
%TD*%
D15*
%TO.C,SW72*%
X285959450Y-115301000D03*
D14*
X285959450Y-130541000D03*
D13*
X292779450Y-122301000D03*
D14*
X297859450Y-122301000D03*
D13*
X302939450Y-122301000D03*
D15*
X309759450Y-115301000D03*
D14*
X309759450Y-130541000D03*
D12*
X300399450Y-117221000D03*
X294049450Y-119761000D03*
%TD*%
D10*
%TO.C,D11*%
X265989798Y-33417657D03*
D11*
X258369798Y-33417657D03*
%TD*%
D12*
%TO.C,REF\u002A\u002A*%
X379323600Y-159994600D03*
%TD*%
D14*
%TO.C,SW80*%
X274046950Y-141351000D03*
D12*
X276586950Y-136271000D03*
X270236950Y-138811000D03*
%TD*%
D10*
%TO.C,D84*%
X346952298Y-138192657D03*
D11*
X339332298Y-138192657D03*
%TD*%
%TO.C,C4*%
X33517200Y-131775200D03*
X36017200Y-131775200D03*
%TD*%
D10*
%TO.C,D83*%
X327902298Y-138192657D03*
D11*
X320282298Y-138192657D03*
%TD*%
D10*
%TO.C,D33*%
X66040000Y-76022200D03*
D11*
X58420000Y-76022200D03*
%TD*%
D13*
%TO.C,SW23*%
X166573200Y-65151000D03*
D14*
X171653200Y-65151000D03*
D13*
X176733200Y-65151000D03*
D12*
X174193200Y-60071000D03*
X167843200Y-62611000D03*
%TD*%
D13*
%TO.C,SW53*%
X180860700Y-103251000D03*
D14*
X185940700Y-103251000D03*
D13*
X191020700Y-103251000D03*
D12*
X188480700Y-98171000D03*
X182130700Y-100711000D03*
%TD*%
D10*
%TO.C,D27*%
X251702298Y-57230157D03*
D11*
X244082298Y-57230157D03*
%TD*%
D10*
%TO.C,D81*%
X277896048Y-133430157D03*
D11*
X270276048Y-133430157D03*
%TD*%
D13*
%TO.C,SW70*%
X247535700Y-122301000D03*
D14*
X252615700Y-122301000D03*
D13*
X257695700Y-122301000D03*
D12*
X255155700Y-117221000D03*
X248805700Y-119761000D03*
%TD*%
D11*
%TO.C,R3*%
X25857200Y-88671400D03*
X33477200Y-88671400D03*
%TD*%
D10*
%TO.C,D20*%
X118352298Y-57230157D03*
D11*
X110732298Y-57230157D03*
%TD*%
D13*
%TO.C,SW42*%
X252298200Y-84201000D03*
D14*
X257378200Y-84201000D03*
D13*
X262458200Y-84201000D03*
D12*
X259918200Y-79121000D03*
X253568200Y-81661000D03*
%TD*%
D13*
%TO.C,SW71*%
X266585700Y-122301000D03*
D14*
X271665700Y-122301000D03*
D13*
X276745700Y-122301000D03*
D12*
X274205700Y-117221000D03*
X267855700Y-119761000D03*
%TD*%
D21*
%TO.C,L1*%
X24667600Y-112395000D03*
X28367600Y-112395000D03*
%TD*%
D10*
%TO.C,D37*%
X146927298Y-76280157D03*
D11*
X139307298Y-76280157D03*
%TD*%
D10*
%TO.C,D35*%
X108827298Y-76280157D03*
D11*
X101207298Y-76280157D03*
%TD*%
D10*
%TO.C,D50*%
X113589798Y-95330157D03*
D11*
X105969798Y-95330157D03*
%TD*%
D10*
%TO.C,D72*%
X275514798Y-114380157D03*
D11*
X267894798Y-114380157D03*
%TD*%
%TO.C,C3*%
X33522600Y-112598200D03*
X36022600Y-112598200D03*
%TD*%
D13*
%TO.C,SW41*%
X233248200Y-84201000D03*
D14*
X238328200Y-84201000D03*
D13*
X243408200Y-84201000D03*
D12*
X240868200Y-79121000D03*
X234518200Y-81661000D03*
%TD*%
D10*
%TO.C,D17*%
X61202298Y-57230157D03*
D11*
X53582298Y-57230157D03*
%TD*%
D10*
%TO.C,D23*%
X175502298Y-57230157D03*
D11*
X167882298Y-57230157D03*
%TD*%
D13*
%TO.C,SW34*%
X99898200Y-84201000D03*
D14*
X104978200Y-84201000D03*
D13*
X110058200Y-84201000D03*
D12*
X107518200Y-79121000D03*
X101168200Y-81661000D03*
%TD*%
D10*
%TO.C,D38*%
X165977298Y-76280157D03*
D11*
X158357298Y-76280157D03*
%TD*%
D13*
%TO.C,SW3*%
X95135700Y-41338500D03*
D14*
X100215700Y-41338500D03*
D13*
X105295700Y-41338500D03*
D12*
X102755700Y-36258500D03*
X96405700Y-38798500D03*
%TD*%
D13*
%TO.C,SW10*%
X238010700Y-41338500D03*
D14*
X243090700Y-41338500D03*
D13*
X248170700Y-41338500D03*
D12*
X245630700Y-36258500D03*
X239280700Y-38798500D03*
%TD*%
D10*
%TO.C,D78*%
X111208548Y-133430157D03*
D11*
X103588548Y-133430157D03*
%TD*%
D13*
%TO.C,SW83*%
X338023200Y-146113500D03*
D14*
X343103200Y-146113500D03*
D13*
X348183200Y-146113500D03*
D12*
X345643200Y-141033500D03*
X339293200Y-143573500D03*
%TD*%
D10*
%TO.C,D4*%
X123114798Y-33417657D03*
D11*
X115494798Y-33417657D03*
%TD*%
%TO.C,R4*%
X25754049Y-93679477D03*
X33374049Y-93679477D03*
%TD*%
D10*
%TO.C,D71*%
X256464798Y-114380157D03*
D11*
X248844798Y-114380157D03*
%TD*%
D13*
%TO.C,SW82*%
X318973200Y-146113500D03*
D14*
X324053200Y-146113500D03*
D13*
X329133200Y-146113500D03*
D12*
X326593200Y-141033500D03*
X320243200Y-143573500D03*
%TD*%
D13*
%TO.C,SW31*%
X361835700Y-65151000D03*
D14*
X366915700Y-65151000D03*
D13*
X371995700Y-65151000D03*
D12*
X369455700Y-60071000D03*
X363105700Y-62611000D03*
%TD*%
D10*
%TO.C,D53*%
X170739798Y-95330157D03*
D11*
X163119798Y-95330157D03*
%TD*%
D10*
%TO.C,D85*%
X366141000Y-137845800D03*
D11*
X358521000Y-137845800D03*
%TD*%
D10*
%TO.C,D40*%
X204077298Y-76280157D03*
D11*
X196457298Y-76280157D03*
%TD*%
D14*
%TO.C,SW81*%
X297859450Y-141351000D03*
D12*
X300399450Y-136271000D03*
X294049450Y-138811000D03*
%TD*%
D10*
%TO.C,D7*%
X185027298Y-33417657D03*
D11*
X177407298Y-33417657D03*
%TD*%
D13*
%TO.C,SW45*%
X314210700Y-84201000D03*
D14*
X319290700Y-84201000D03*
D13*
X324370700Y-84201000D03*
D12*
X321830700Y-79121000D03*
X315480700Y-81661000D03*
%TD*%
D10*
%TO.C,D9*%
X223127298Y-33417657D03*
D11*
X215507298Y-33417657D03*
%TD*%
D13*
%TO.C,SW38*%
X176098200Y-84201000D03*
D14*
X181178200Y-84201000D03*
D13*
X186258200Y-84201000D03*
D12*
X183718200Y-79121000D03*
X177368200Y-81661000D03*
%TD*%
D13*
%TO.C,SW22*%
X147523200Y-65151000D03*
D14*
X152603200Y-65151000D03*
D13*
X157683200Y-65151000D03*
D12*
X155143200Y-60071000D03*
X148793200Y-62611000D03*
%TD*%
D10*
%TO.C,D47*%
X370764798Y-76280157D03*
D11*
X363144798Y-76280157D03*
%TD*%
D13*
%TO.C,SW62*%
X95135700Y-122301000D03*
D14*
X100215700Y-122301000D03*
D13*
X105295700Y-122301000D03*
D12*
X102755700Y-117221000D03*
X96405700Y-119761000D03*
%TD*%
D13*
%TO.C,SW25*%
X204673200Y-65151000D03*
D14*
X209753200Y-65151000D03*
D13*
X214833200Y-65151000D03*
D12*
X212293200Y-60071000D03*
X205943200Y-62611000D03*
%TD*%
D10*
%TO.C,D39*%
X185027298Y-76280157D03*
D11*
X177407298Y-76280157D03*
%TD*%
D13*
%TO.C,SW9*%
X214198200Y-41338500D03*
D14*
X219278200Y-41338500D03*
D13*
X224358200Y-41338500D03*
D12*
X221818200Y-36258500D03*
X215468200Y-38798500D03*
%TD*%
D10*
%TO.C,D69*%
X218364798Y-114380157D03*
D11*
X210744798Y-114380157D03*
%TD*%
D10*
%TO.C,D44*%
X280277298Y-76280157D03*
D11*
X272657298Y-76280157D03*
%TD*%
%TO.C,C5*%
X33289085Y-123558033D03*
X35789085Y-123558033D03*
%TD*%
D13*
%TO.C,SW43*%
X271348200Y-84201000D03*
D14*
X276428200Y-84201000D03*
D13*
X281508200Y-84201000D03*
D12*
X278968200Y-79121000D03*
X272618200Y-81661000D03*
%TD*%
D10*
%TO.C,D77*%
X94335600Y-133273800D03*
D11*
X86715600Y-133273800D03*
%TD*%
D22*
%TO.C,J1*%
X54991000Y-25323800D03*
D23*
X56991000Y-25323800D03*
%TD*%
D13*
%TO.C,SW14*%
X314210700Y-41338500D03*
D14*
X319290700Y-41338500D03*
D13*
X324370700Y-41338500D03*
D12*
X321830700Y-36258500D03*
X315480700Y-38798500D03*
%TD*%
D10*
%TO.C,D82*%
X301708548Y-133430157D03*
D11*
X294088548Y-133430157D03*
%TD*%
%TO.C,C2*%
X33268600Y-105943400D03*
X35768600Y-105943400D03*
%TD*%
D13*
%TO.C,SW50*%
X123710700Y-103251000D03*
D14*
X128790700Y-103251000D03*
D13*
X133870700Y-103251000D03*
D12*
X131330700Y-98171000D03*
X124980700Y-100711000D03*
%TD*%
D10*
%TO.C,D64*%
X123114798Y-114380157D03*
D11*
X115494798Y-114380157D03*
%TD*%
D10*
%TO.C,D21*%
X137402298Y-57230157D03*
D11*
X129782298Y-57230157D03*
%TD*%
D10*
%TO.C,D2*%
X85014798Y-33417657D03*
D11*
X77394798Y-33417657D03*
%TD*%
D13*
%TO.C,SW11*%
X257060700Y-41338500D03*
D14*
X262140700Y-41338500D03*
D13*
X267220700Y-41338500D03*
D12*
X264680700Y-36258500D03*
X258330700Y-38798500D03*
%TD*%
D16*
%TO.C,U2*%
X21107400Y-123520200D03*
D11*
X21107400Y-126060200D03*
X21107400Y-128600200D03*
X21107400Y-131140200D03*
X21107400Y-133680200D03*
X21107400Y-136220200D03*
X21107400Y-138760200D03*
X28727400Y-138760200D03*
X28727400Y-136220200D03*
X28727400Y-133680200D03*
X28727400Y-131140200D03*
X28727400Y-128600200D03*
X28727400Y-126060200D03*
X28727400Y-123520200D03*
%TD*%
D10*
%TO.C,D52*%
X151689798Y-95330157D03*
D11*
X144069798Y-95330157D03*
%TD*%
D14*
%TO.C,SW79*%
X250234450Y-141351000D03*
D12*
X252774450Y-136271000D03*
X246424450Y-138811000D03*
%TD*%
D16*
%TO.C,U5*%
X340072673Y-85081201D03*
D11*
X340072673Y-87621201D03*
X340072673Y-90161201D03*
X340072673Y-92701201D03*
X340072673Y-95241201D03*
X340072673Y-97781201D03*
X340072673Y-100321201D03*
X340072673Y-102861201D03*
X350232673Y-102861201D03*
X350232673Y-100321201D03*
X350232673Y-97781201D03*
X350232673Y-95241201D03*
X350232673Y-92701201D03*
X350232673Y-90161201D03*
X350232673Y-87621201D03*
X350232673Y-85081201D03*
%TD*%
D12*
%TO.C,REF\u002A\u002A*%
X20574000Y-25984200D03*
%TD*%
D10*
%TO.C,D12*%
X285039798Y-33417657D03*
D11*
X277419798Y-33417657D03*
%TD*%
D10*
%TO.C,D26*%
X232652298Y-57230157D03*
D11*
X225032298Y-57230157D03*
%TD*%
D13*
%TO.C,SW48*%
X85610700Y-103251000D03*
D14*
X90690700Y-103251000D03*
D13*
X95770700Y-103251000D03*
D12*
X93230700Y-98171000D03*
X86880700Y-100711000D03*
%TD*%
D13*
%TO.C,SW47*%
X59416950Y-103251000D03*
D14*
X64496950Y-103251000D03*
D13*
X69576950Y-103251000D03*
D12*
X67036950Y-98171000D03*
X60686950Y-100711000D03*
%TD*%
D16*
%TO.C,D15*%
X343052400Y-32423100D03*
D11*
X350672400Y-32423100D03*
%TD*%
D10*
%TO.C,D43*%
X261227298Y-76280157D03*
D11*
X253607298Y-76280157D03*
%TD*%
D13*
%TO.C,SW26*%
X223723200Y-65151000D03*
D14*
X228803200Y-65151000D03*
D13*
X233883200Y-65151000D03*
D12*
X231343200Y-60071000D03*
X224993200Y-62611000D03*
%TD*%
D13*
%TO.C,SW65*%
X152285700Y-122301000D03*
D14*
X157365700Y-122301000D03*
D13*
X162445700Y-122301000D03*
D12*
X159905700Y-117221000D03*
X153555700Y-119761000D03*
%TD*%
D10*
%TO.C,D80*%
X254083548Y-133430157D03*
D11*
X246463548Y-133430157D03*
%TD*%
D13*
%TO.C,SW68*%
X209435700Y-122301000D03*
D14*
X214515700Y-122301000D03*
D13*
X219595700Y-122301000D03*
D12*
X217055700Y-117221000D03*
X210705700Y-119761000D03*
%TD*%
D13*
%TO.C,SW66*%
X171335700Y-122301000D03*
D14*
X176415700Y-122301000D03*
D13*
X181495700Y-122301000D03*
D12*
X178955700Y-117221000D03*
X172605700Y-119761000D03*
%TD*%
D10*
%TO.C,D8*%
X204077298Y-33417657D03*
D11*
X196457298Y-33417657D03*
%TD*%
D10*
%TO.C,D1*%
X61188600Y-33172400D03*
D11*
X53568600Y-33172400D03*
%TD*%
D13*
%TO.C,SW1*%
X52273200Y-41338500D03*
D14*
X57353200Y-41338500D03*
D13*
X62433200Y-41338500D03*
D12*
X59893200Y-36258500D03*
X53543200Y-38798500D03*
%TD*%
D13*
%TO.C,SW57*%
X257060700Y-103251000D03*
D14*
X262140700Y-103251000D03*
D13*
X267220700Y-103251000D03*
D12*
X264680700Y-98171000D03*
X258330700Y-100711000D03*
%TD*%
D10*
%TO.C,D74*%
X370764798Y-114380157D03*
D11*
X363144798Y-114380157D03*
%TD*%
D10*
%TO.C,D49*%
X94539798Y-95330157D03*
D11*
X86919798Y-95330157D03*
%TD*%
D10*
%TO.C,D10*%
X246939798Y-33417657D03*
D11*
X239319798Y-33417657D03*
%TD*%
D13*
%TO.C,SW67*%
X190385700Y-122301000D03*
D14*
X195465700Y-122301000D03*
D13*
X200545700Y-122301000D03*
D12*
X198005700Y-117221000D03*
X191655700Y-119761000D03*
%TD*%
D13*
%TO.C,SW20*%
X109423200Y-65151000D03*
D14*
X114503200Y-65151000D03*
D13*
X119583200Y-65151000D03*
D12*
X117043200Y-60071000D03*
X110693200Y-62611000D03*
%TD*%
D13*
%TO.C,SW12*%
X276110700Y-41338500D03*
D14*
X281190700Y-41338500D03*
D13*
X286270700Y-41338500D03*
D12*
X283730700Y-36258500D03*
X277380700Y-38798500D03*
%TD*%
D10*
%TO.C,D41*%
X223127298Y-76280157D03*
D11*
X215507298Y-76280157D03*
%TD*%
D10*
%TO.C,D25*%
X213602298Y-57230157D03*
D11*
X205982298Y-57230157D03*
%TD*%
D10*
%TO.C,D48*%
X68346048Y-95330157D03*
D11*
X60726048Y-95330157D03*
%TD*%
D13*
%TO.C,SW73*%
X361835700Y-122301000D03*
D14*
X366915700Y-122301000D03*
D13*
X371995700Y-122301000D03*
D12*
X369455700Y-117221000D03*
X363105700Y-119761000D03*
%TD*%
D10*
%TO.C,D62*%
X72821800Y-113995200D03*
D11*
X65201800Y-113995200D03*
%TD*%
D10*
%TO.C,D42*%
X242177298Y-76280157D03*
D11*
X234557298Y-76280157D03*
%TD*%
D13*
%TO.C,SW39*%
X195148200Y-84201000D03*
D14*
X200228200Y-84201000D03*
D13*
X205308200Y-84201000D03*
D12*
X202768200Y-79121000D03*
X196418200Y-81661000D03*
%TD*%
D10*
%TO.C,D51*%
X132639798Y-95330157D03*
D11*
X125019798Y-95330157D03*
%TD*%
D13*
%TO.C,SW21*%
X128473200Y-65151000D03*
D14*
X133553200Y-65151000D03*
D13*
X138633200Y-65151000D03*
D12*
X136093200Y-60071000D03*
X129743200Y-62611000D03*
%TD*%
D10*
%TO.C,D57*%
X246939798Y-95330157D03*
D11*
X239319798Y-95330157D03*
%TD*%
D13*
%TO.C,SW6*%
X157048200Y-41338500D03*
D14*
X162128200Y-41338500D03*
D13*
X167208200Y-41338500D03*
D12*
X164668200Y-36258500D03*
X158318200Y-38798500D03*
%TD*%
D13*
%TO.C,SW63*%
X114185700Y-122301000D03*
D14*
X119265700Y-122301000D03*
D13*
X124345700Y-122301000D03*
D12*
X121805700Y-117221000D03*
X115455700Y-119761000D03*
%TD*%
D24*
%TO.C,SW16*%
X357011400Y-38711500D03*
D25*
X357011400Y-43711500D03*
X357011400Y-41211500D03*
D26*
X364511400Y-35611500D03*
X364511400Y-46811500D03*
D25*
X371511400Y-43711500D03*
X371511400Y-38711500D03*
%TD*%
D13*
%TO.C,SW2*%
X76085700Y-41338500D03*
D14*
X81165700Y-41338500D03*
D13*
X86245700Y-41338500D03*
D12*
X83705700Y-36258500D03*
X77355700Y-38798500D03*
%TD*%
D13*
%TO.C,SW7*%
X176098200Y-41338500D03*
D14*
X181178200Y-41338500D03*
D13*
X186258200Y-41338500D03*
D12*
X183718200Y-36258500D03*
X177368200Y-38798500D03*
%TD*%
D24*
%TO.C,SW15*%
X338099400Y-38649900D03*
D25*
X338099400Y-43649900D03*
X338099400Y-41149900D03*
D26*
X345599400Y-35549900D03*
X345599400Y-46749900D03*
D25*
X352599400Y-43649900D03*
X352599400Y-38649900D03*
%TD*%
D10*
%TO.C,D22*%
X156452298Y-57230157D03*
D11*
X148832298Y-57230157D03*
%TD*%
D13*
%TO.C,SW55*%
X218960700Y-103251000D03*
D14*
X224040700Y-103251000D03*
D13*
X229120700Y-103251000D03*
D12*
X226580700Y-98171000D03*
X220230700Y-100711000D03*
%TD*%
D11*
%TO.C,C75*%
X263352600Y-126517400D03*
X260852600Y-126517400D03*
%TD*%
%TO.C,C54*%
X101478400Y-108788200D03*
X98978400Y-108788200D03*
%TD*%
%TO.C,C76*%
X282351800Y-130048000D03*
X279851800Y-130048000D03*
%TD*%
%TO.C,C89*%
X366693200Y-156033500D03*
X364193200Y-156033500D03*
%TD*%
%TO.C,C18*%
X304780700Y-50863500D03*
X302280700Y-50863500D03*
%TD*%
%TO.C,C35*%
X325755000Y-67310000D03*
X323255000Y-67310000D03*
%TD*%
%TO.C,C25*%
X115727800Y-74726800D03*
X113227800Y-74726800D03*
%TD*%
%TO.C,C7*%
X85705700Y-50863500D03*
X83205700Y-50863500D03*
%TD*%
%TO.C,C30*%
X212324000Y-74193400D03*
X209824000Y-74193400D03*
%TD*%
%TO.C,C21*%
X348341000Y-50800000D03*
X345841000Y-50800000D03*
%TD*%
%TO.C,C20*%
X364475400Y-50977800D03*
X361975400Y-50977800D03*
%TD*%
%TO.C,C82*%
X111899450Y-151271000D03*
X109399450Y-151271000D03*
%TD*%
%TO.C,C86*%
X302399450Y-151271000D03*
X299899450Y-151271000D03*
%TD*%
%TO.C,C37*%
X70160200Y-92481400D03*
X67660200Y-92481400D03*
%TD*%
%TO.C,C77*%
X286582800Y-126746000D03*
X289082800Y-126746000D03*
%TD*%
%TO.C,C42*%
X160564200Y-92659200D03*
X158064200Y-92659200D03*
%TD*%
%TO.C,C50*%
X331063600Y-89585800D03*
X328563600Y-89585800D03*
%TD*%
%TO.C,C17*%
X285730700Y-50863500D03*
X283230700Y-50863500D03*
%TD*%
%TO.C,C16*%
X266680700Y-50863500D03*
X264180700Y-50863500D03*
%TD*%
%TO.C,C27*%
X154005600Y-74803000D03*
X151505600Y-74803000D03*
%TD*%
%TO.C,C33*%
X268381800Y-74803000D03*
X265881800Y-74803000D03*
%TD*%
%TO.C,C73*%
X219055700Y-132221000D03*
X216555700Y-132221000D03*
%TD*%
%TO.C,C74*%
X238105700Y-132221000D03*
X235605700Y-132221000D03*
%TD*%
%TO.C,C57*%
X158577600Y-108712000D03*
X156077600Y-108712000D03*
%TD*%
%TO.C,C36*%
X358140000Y-70256400D03*
X355640000Y-70256400D03*
%TD*%
%TO.C,C52*%
X75387200Y-108864400D03*
X72887200Y-108864400D03*
%TD*%
%TO.C,C84*%
X254774450Y-151271000D03*
X252274450Y-151271000D03*
%TD*%
%TO.C,C11*%
X166668200Y-50863500D03*
X164168200Y-50863500D03*
%TD*%
%TO.C,C28*%
X172954000Y-74853800D03*
X170454000Y-74853800D03*
%TD*%
%TO.C,C81*%
X88086950Y-151271000D03*
X85586950Y-151271000D03*
%TD*%
%TO.C,C19*%
X323830700Y-50863500D03*
X321330700Y-50863500D03*
%TD*%
%TO.C,C65*%
X358201600Y-108966000D03*
X355701600Y-108966000D03*
%TD*%
%TO.C,C83*%
X183336950Y-151271000D03*
X180836950Y-151271000D03*
%TD*%
%TO.C,C29*%
X191978600Y-75006200D03*
X189478600Y-75006200D03*
%TD*%
%TO.C,C51*%
X358050603Y-89148165D03*
X355550603Y-89148165D03*
%TD*%
%TO.C,C41*%
X142911200Y-92506800D03*
X140411200Y-92506800D03*
%TD*%
%TO.C,C85*%
X273578000Y-151384000D03*
X276078000Y-151384000D03*
%TD*%
%TO.C,C55*%
X120553800Y-108940600D03*
X118053800Y-108940600D03*
%TD*%
%TO.C,C66*%
X58135200Y-123596400D03*
X60635200Y-123596400D03*
%TD*%
%TO.C,C8*%
X104755700Y-50863500D03*
X102255700Y-50863500D03*
%TD*%
%TO.C,C70*%
X168300400Y-123875800D03*
X165800400Y-123875800D03*
%TD*%
%TO.C,C23*%
X76321600Y-73660000D03*
X78821600Y-73660000D03*
%TD*%
%TO.C,C34*%
X287177800Y-74853800D03*
X284677800Y-74853800D03*
%TD*%
%TO.C,C71*%
X168178800Y-127533400D03*
X165678800Y-127533400D03*
%TD*%
%TO.C,C59*%
X196657600Y-109042200D03*
X194157600Y-109042200D03*
%TD*%
%TO.C,C47*%
X257485200Y-92532200D03*
X254985200Y-92532200D03*
%TD*%
%TO.C,C24*%
X94279400Y-75006200D03*
X96779400Y-75006200D03*
%TD*%
%TO.C,C88*%
X347643200Y-156033500D03*
X345143200Y-156033500D03*
%TD*%
%TO.C,C60*%
X215778400Y-109296200D03*
X213278400Y-109296200D03*
%TD*%
%TO.C,C44*%
X199299200Y-92506800D03*
X196799200Y-92506800D03*
%TD*%
%TO.C,C61*%
X234777600Y-109093000D03*
X232277600Y-109093000D03*
%TD*%
%TO.C,C68*%
X123805700Y-132221000D03*
X121305700Y-132221000D03*
%TD*%
%TO.C,C56*%
X139634600Y-108889800D03*
X137134600Y-108889800D03*
%TD*%
%TO.C,C63*%
X272979200Y-108813600D03*
X270479200Y-108813600D03*
%TD*%
%TO.C,C43*%
X180071400Y-92583000D03*
X177571400Y-92583000D03*
%TD*%
%TO.C,C39*%
X105598600Y-92506800D03*
X103098600Y-92506800D03*
%TD*%
%TO.C,C1*%
X33441000Y-100177600D03*
X35941000Y-100177600D03*
%TD*%
%TO.C,C72*%
X200005700Y-132221000D03*
X197505700Y-132221000D03*
%TD*%
%TO.C,C87*%
X328593200Y-156033500D03*
X326093200Y-156033500D03*
%TD*%
%TO.C,C79*%
X333705200Y-132257800D03*
X331205200Y-132257800D03*
%TD*%
%TO.C,C53*%
X82174400Y-108737400D03*
X79674400Y-108737400D03*
%TD*%
%TO.C,C9*%
X123805700Y-50863500D03*
X121305700Y-50863500D03*
%TD*%
%TO.C,C64*%
X303433800Y-105892600D03*
X300933800Y-105892600D03*
%TD*%
%TO.C,C48*%
X276870800Y-92379800D03*
X274370800Y-92379800D03*
%TD*%
%TO.C,C40*%
X125156600Y-92506800D03*
X122656600Y-92506800D03*
%TD*%
%TO.C,C15*%
X247630700Y-50863500D03*
X245130700Y-50863500D03*
%TD*%
%TO.C,C45*%
X218323800Y-92583000D03*
X215823800Y-92583000D03*
%TD*%
%TO.C,C12*%
X185718200Y-50863500D03*
X183218200Y-50863500D03*
%TD*%
%TO.C,C6*%
X61874400Y-50977800D03*
X59374400Y-50977800D03*
%TD*%
%TO.C,C10*%
X142855700Y-50863500D03*
X140355700Y-50863500D03*
%TD*%
%TO.C,C31*%
X231317800Y-74676000D03*
X228817800Y-74676000D03*
%TD*%
%TO.C,C46*%
X239024800Y-92481400D03*
X236524800Y-92481400D03*
%TD*%
%TO.C,C67*%
X101026600Y-130733800D03*
X98526600Y-130733800D03*
%TD*%
%TO.C,C38*%
X81387000Y-92735400D03*
X78887000Y-92735400D03*
%TD*%
%TO.C,C26*%
X134777800Y-74853800D03*
X132277800Y-74853800D03*
%TD*%
%TO.C,C49*%
X294498400Y-92938600D03*
X291998400Y-92938600D03*
%TD*%
%TO.C,C78*%
X371455700Y-132221000D03*
X368955700Y-132221000D03*
%TD*%
%TO.C,C62*%
X253909200Y-108915200D03*
X251409200Y-108915200D03*
%TD*%
%TO.C,C14*%
X223818200Y-50863500D03*
X221318200Y-50863500D03*
%TD*%
%TO.C,C80*%
X64274450Y-151271000D03*
X61774450Y-151271000D03*
%TD*%
%TO.C,C22*%
X53055200Y-73660000D03*
X55555200Y-73660000D03*
%TD*%
%TO.C,C69*%
X142855700Y-132221000D03*
X140355700Y-132221000D03*
%TD*%
%TO.C,C13*%
X204768200Y-50863500D03*
X202268200Y-50863500D03*
%TD*%
%TO.C,C58*%
X177653000Y-108889800D03*
X175153000Y-108889800D03*
%TD*%
%TO.C,C32*%
X249128600Y-74726800D03*
X246628600Y-74726800D03*
%TD*%
M02*
