M48
; DRILL file KiCad 10.0.1 date 2026-07-17T03:30:47
; FORMAT={-:-/ absolute / metric / decimal}
; #@! TF.CreationDate,2026-07-17T03:30:47+05:30
; #@! TF.GenerationSoftware,Kicad,Pcbnew,10.0.1
; #@! TF.FileFunction,Plated,1,2,PTH
FMAT,2
METRIC
; #@! TA.AperFunction,Plated,PTH,ViaDrill
T1C0.300
; #@! TA.AperFunction,Plated,PTH,ComponentDrill
T2C0.750
; #@! TA.AperFunction,Plated,PTH,ComponentDrill
T3C0.800
; #@! TA.AperFunction,Plated,PTH,ComponentDrill
T4C1.000
; #@! TA.AperFunction,Plated,PTH,ComponentDrill
T5C1.500
%
G90
G05
T1
X34.997Y-87.787
X37.592Y-108.712
X41.834Y-47.066
X42.088Y-84.582
X42.824Y-92.558
X48.743Y-54.381
X59.436Y-124.46
X64.008Y-70.612
X64.592Y-129.21
X65.253Y-69.367
X65.557Y-145.517
X66.675Y-69.367
X68.072Y-88.341
X69.088Y-69.85
X69.748Y-107.391
X70.358Y-89.916
X72.39Y-119.888
X73.279Y-88.367
X73.457Y-126.416
X74.168Y-72.39
X78.791Y-146.837
X80.493Y-51.156
X82.398Y-106.807
X86.868Y-48.514
X87.3Y-46.482
X88.087Y-51.816
X88.443Y-145.466
X88.646Y-30.988
X89.103Y-69.24
X90.424Y-46.482
X90.907Y-69.545
X93.447Y-110.465
X93.675Y-88.443
X95.631Y-127.965
X96.393Y-88.494
X97.638Y-145.517
X100.0Y-51.486
X102.362Y-48.743
X103.378Y-107.391
X105.461Y-108.534
X106.172Y-48.006
X107.975Y-69.393
X108.458Y-51.562
X109.855Y-69.901
X110.287Y-126.492
X112.446Y-111.557
X112.624Y-88.494
X113.64Y-46.482
X114.376Y-126.492
X114.757Y-88.417
X118.897Y-51.841
X120.802Y-107.29
X123.952Y-48.006
X124.384Y-108.407
X126.517Y-69.393
X128.905Y-69.367
X129.54Y-68.326
X131.242Y-88.494
X131.572Y-111.506
X134.468Y-88.494
X137.312Y-51.537
X139.827Y-107.315
X139.93Y-48.65
X143.053Y-108.153
X143.256Y-48.006
X146.101Y-69.291
X147.676Y-69.291
X148.844Y-68.326
X149.682Y-126.492
X150.724Y-112.166
X150.952Y-88.392
X152.679Y-126.39
X152.806Y-88.392
X155.169Y-46.33
X157.531Y-51.511
X165.1Y-69.291
X167.107Y-69.291
X169.672Y-111.455
X169.824Y-88.595
X173.228Y-88.392
X175.743Y-51.333
X176.276Y-46.812
X180.238Y-109.449
X181.61Y-109.093
X183.896Y-148.082
X184.201Y-69.342
X185.877Y-69.367
X188.443Y-88.443
X188.697Y-111.735
X189.789Y-126.441
X189.814Y-130.708
X190.957Y-88.494
X191.567Y-127.203
X193.7Y-46.279
X198.222Y-69.367
X198.323Y-51.054
X205.703Y-69.456
X209.017Y-89.459
X209.017Y-111.557
X213.589Y-46.406
X214.859Y-51.131
X217.068Y-107.442
X219.856Y-107.421
X222.174Y-69.342
X223.672Y-69.367
X226.873Y-111.735
X227.051Y-88.341
X229.032Y-88.392
X233.172Y-68.326
X235.179Y-51.359
X236.423Y-46.685
X236.474Y-110.907
X238.379Y-110.907
X240.411Y-126.517
X241.554Y-69.317
X243.23Y-69.291
X245.11Y-126.492
X245.872Y-111.531
X246.253Y-88.29
X248.183Y-88.29
X248.615Y-129.565
X254.432Y-51.257
X255.168Y-107.467
X257.505Y-107.417
X259.334Y-41.91
X260.274Y-69.418
X262.382Y-69.367
X262.433Y-151.486
X264.795Y-110.985
X265.151Y-88.494
X267.208Y-47.498
X267.614Y-88.443
X269.748Y-144.272
X270.764Y-149.352
X274.066Y-51.186
X274.396Y-105.893
X274.701Y-107.315
X276.469Y-127.321
X276.784Y-108.534
X276.86Y-106.68
X279.324Y-69.367
X281.051Y-69.342
X281.94Y-68.58
X284.48Y-88.24
X285.979Y-108.229
X286.935Y-132.897
X287.147Y-88.341
X292.227Y-127.686
X293.014Y-108.991
X298.704Y-69.342
X302.184Y-69.317
X302.971Y-108.991
X306.045Y-126.822
X306.629Y-28.905
X309.804Y-88.367
X312.369Y-147.828
X313.309Y-88.341
X314.3Y-111.074
X317.246Y-72.898
X320.37Y-69.139
X327.0Y-86.665
X329.816Y-152.864
X330.083Y-118.498
X331.724Y-107.467
X336.483Y-44.72
X339.522Y-44.75
X340.081Y-129.667
X340.512Y-105.562
X341.528Y-108.636
X343.256Y-136.017
X345.872Y-136.334
X346.837Y-64.491
X348.234Y-152.4
X350.749Y-123.723
X353.06Y-72.136
X356.743Y-87.046
X358.648Y-96.681
X358.775Y-102.616
X359.054Y-68.377
X359.258Y-41.91
X359.359Y-95.352
X359.664Y-69.596
X361.34Y-43.129
X361.696Y-69.799
X363.347Y-112.243
X366.776Y-150.876
X368.554Y-72.644
X368.759Y-29.555
X369.646Y-124.739
X369.849Y-152.171
X371.881Y-58.395
X372.186Y-67.285
X372.267Y-88.062
X373.99Y-107.391
X374.667Y-87.96
T2
X54.991Y-25.324
X56.991Y-25.324
T3
X21.107Y-123.52
X21.107Y-126.06
X21.107Y-128.6
X21.107Y-131.14
X21.107Y-133.68
X21.107Y-136.22
X21.107Y-138.76
X25.754Y-93.679
X25.857Y-88.671
X28.727Y-123.52
X28.727Y-126.06
X28.727Y-128.6
X28.727Y-131.14
X28.727Y-133.68
X28.727Y-136.22
X28.727Y-138.76
X33.269Y-105.943
X33.289Y-123.558
X33.374Y-93.679
X33.441Y-100.178
X33.477Y-88.671
X33.517Y-131.775
X33.523Y-112.598
X35.769Y-105.943
X35.789Y-123.558
X35.941Y-100.178
X36.017Y-131.775
X36.023Y-112.598
X43.053Y-29.464
X43.205Y-25.349
X50.673Y-29.464
X50.825Y-25.349
X53.055Y-73.66
X53.569Y-33.172
X53.582Y-57.23
X55.555Y-73.66
X58.135Y-123.596
X58.42Y-76.022
X59.374Y-50.978
X60.635Y-123.596
X60.726Y-95.33
X61.189Y-33.172
X61.202Y-57.23
X61.774Y-151.271
X61.874Y-50.978
X63.068Y-133.045
X64.274Y-151.271
X65.202Y-113.995
X66.04Y-76.022
X67.66Y-92.481
X68.346Y-95.33
X70.16Y-92.481
X70.688Y-133.045
X72.632Y-57.23
X72.822Y-113.995
X72.887Y-108.864
X75.387Y-108.864
X76.322Y-73.66
X77.395Y-33.418
X78.822Y-73.66
X78.887Y-92.735
X79.674Y-108.737
X80.252Y-57.23
X81.387Y-92.735
X82.157Y-76.28
X82.174Y-108.737
X83.206Y-50.863
X85.015Y-33.418
X85.587Y-151.271
X85.706Y-50.863
X86.716Y-133.274
X86.92Y-95.33
X88.087Y-151.271
X89.777Y-76.28
X91.682Y-57.23
X94.279Y-75.006
X94.336Y-133.274
X94.54Y-95.33
X96.445Y-33.418
X96.445Y-114.38
X96.779Y-75.006
X98.527Y-130.734
X98.978Y-108.788
X99.302Y-57.23
X101.027Y-130.734
X101.207Y-76.28
X101.478Y-108.788
X102.256Y-50.863
X103.099Y-92.507
X103.589Y-133.43
X104.065Y-33.418
X104.065Y-114.38
X104.756Y-50.863
X105.599Y-92.507
X105.97Y-95.33
X108.827Y-76.28
X109.399Y-151.271
X110.732Y-57.23
X111.209Y-133.43
X111.899Y-151.271
X113.228Y-74.727
X113.59Y-95.33
X115.495Y-33.418
X115.495Y-114.38
X115.728Y-74.727
X118.054Y-108.941
X118.352Y-57.23
X120.257Y-76.28
X120.554Y-108.941
X121.306Y-50.863
X121.306Y-132.221
X122.657Y-92.507
X123.115Y-33.418
X123.115Y-114.38
X123.806Y-50.863
X123.806Y-132.221
X125.02Y-95.33
X125.157Y-92.507
X127.877Y-76.28
X129.782Y-57.23
X132.278Y-74.854
X132.64Y-95.33
X134.545Y-33.418
X134.545Y-114.38
X134.778Y-74.854
X137.135Y-108.89
X137.402Y-57.23
X139.307Y-76.28
X139.635Y-108.89
X140.356Y-50.863
X140.356Y-132.221
X140.411Y-92.507
X142.165Y-33.418
X142.165Y-114.38
X142.856Y-50.863
X142.856Y-132.221
X142.911Y-92.507
X144.07Y-95.33
X146.927Y-76.28
X148.832Y-57.23
X151.506Y-74.803
X151.69Y-95.33
X153.595Y-114.38
X154.006Y-74.803
X156.078Y-108.712
X156.452Y-57.23
X158.064Y-92.659
X158.357Y-33.418
X158.357Y-76.28
X158.578Y-108.712
X160.564Y-92.659
X161.215Y-114.38
X163.12Y-95.33
X164.168Y-50.863
X165.679Y-127.533
X165.8Y-123.876
X165.977Y-33.418
X165.977Y-76.28
X166.668Y-50.863
X167.882Y-57.23
X168.179Y-127.533
X168.3Y-123.876
X170.454Y-74.854
X170.74Y-95.33
X172.645Y-114.38
X172.954Y-74.854
X175.026Y-133.43
X175.153Y-108.89
X175.502Y-57.23
X177.407Y-33.418
X177.407Y-76.28
X177.571Y-92.583
X177.653Y-108.89
X180.071Y-92.583
X180.265Y-114.38
X180.837Y-151.271
X182.17Y-95.33
X182.646Y-133.43
X183.218Y-50.863
X183.337Y-151.271
X185.027Y-33.418
X185.027Y-76.28
X185.718Y-50.863
X186.932Y-57.23
X189.479Y-75.006
X189.79Y-95.33
X191.695Y-114.38
X191.979Y-75.006
X194.158Y-109.042
X194.552Y-57.23
X196.457Y-33.418
X196.457Y-76.28
X196.658Y-109.042
X196.799Y-92.507
X197.506Y-132.221
X199.299Y-92.507
X199.315Y-114.38
X200.006Y-132.221
X201.22Y-95.33
X202.268Y-50.863
X204.077Y-33.418
X204.077Y-76.28
X204.768Y-50.863
X205.982Y-57.23
X208.84Y-95.33
X209.824Y-74.193
X210.745Y-114.38
X212.324Y-74.193
X213.278Y-109.296
X213.602Y-57.23
X215.507Y-33.418
X215.507Y-76.28
X215.778Y-109.296
X215.824Y-92.583
X216.556Y-132.221
X218.324Y-92.583
X218.365Y-114.38
X219.056Y-132.221
X220.27Y-95.33
X221.318Y-50.863
X223.127Y-33.418
X223.127Y-76.28
X223.818Y-50.863
X225.032Y-57.23
X227.89Y-95.33
X228.818Y-74.676
X229.795Y-114.38
X231.318Y-74.676
X232.278Y-109.093
X232.652Y-57.23
X234.557Y-76.28
X234.778Y-109.093
X235.606Y-132.221
X236.525Y-92.481
X237.415Y-114.38
X238.106Y-132.221
X239.025Y-92.481
X239.32Y-33.418
X239.32Y-95.33
X242.177Y-76.28
X244.082Y-57.23
X245.131Y-50.863
X246.464Y-133.43
X246.629Y-74.727
X246.94Y-33.418
X246.94Y-95.33
X247.631Y-50.863
X248.845Y-114.38
X249.129Y-74.727
X251.409Y-108.915
X251.702Y-57.23
X252.274Y-151.271
X253.607Y-76.28
X253.909Y-108.915
X254.084Y-133.43
X254.774Y-151.271
X254.985Y-92.532
X256.465Y-114.38
X257.485Y-92.532
X258.37Y-33.418
X258.37Y-95.33
X260.853Y-126.517
X261.227Y-76.28
X263.132Y-57.23
X263.353Y-126.517
X264.181Y-50.863
X265.882Y-74.803
X265.99Y-33.418
X265.99Y-95.33
X266.681Y-50.863
X267.895Y-114.38
X268.382Y-74.803
X270.276Y-133.43
X270.479Y-108.814
X270.752Y-57.23
X272.657Y-76.28
X272.979Y-108.814
X273.578Y-151.384
X274.371Y-92.38
X275.515Y-114.38
X276.078Y-151.384
X276.871Y-92.38
X277.42Y-33.418
X277.42Y-95.33
X277.896Y-133.43
X279.852Y-130.048
X280.277Y-76.28
X282.182Y-57.23
X282.352Y-130.048
X283.231Y-50.863
X284.678Y-74.854
X285.04Y-33.418
X285.04Y-95.33
X285.731Y-50.863
X286.583Y-126.746
X287.178Y-74.854
X289.083Y-126.746
X289.802Y-57.23
X291.707Y-76.28
X291.998Y-92.939
X294.089Y-133.43
X294.498Y-92.939
X296.47Y-33.418
X299.327Y-76.28
X299.899Y-151.271
X300.934Y-105.893
X301.709Y-133.43
X302.281Y-50.863
X302.399Y-151.271
X303.434Y-105.893
X304.09Y-33.418
X304.781Y-50.863
X306.197Y-123.647
X308.229Y-94.856
X310.757Y-57.23
X313.817Y-123.647
X315.519Y-76.225
X315.52Y-33.418
X315.849Y-94.856
X318.377Y-57.23
X320.282Y-138.193
X321.331Y-50.863
X323.139Y-76.225
X323.14Y-33.418
X323.255Y-67.31
X323.831Y-50.863
X325.755Y-67.31
X326.093Y-156.034
X327.902Y-138.193
X328.564Y-89.586
X328.593Y-156.034
X331.064Y-89.586
X331.205Y-132.258
X333.705Y-132.258
X339.332Y-119.143
X339.332Y-138.193
X340.073Y-85.081
X340.073Y-87.621
X340.073Y-90.161
X340.073Y-92.701
X340.073Y-95.241
X340.073Y-97.781
X340.073Y-100.321
X340.073Y-102.861
X340.106Y-61.785
X340.106Y-64.325
X340.106Y-66.865
X340.106Y-69.406
X340.106Y-71.945
X340.106Y-74.486
X340.106Y-77.025
X340.106Y-79.566
X343.052Y-32.423
X345.143Y-156.034
X345.841Y-50.8
X346.952Y-119.143
X346.952Y-138.193
X347.643Y-156.034
X348.341Y-50.8
X350.233Y-85.081
X350.233Y-87.621
X350.233Y-90.161
X350.233Y-92.701
X350.233Y-95.241
X350.233Y-97.781
X350.233Y-100.321
X350.233Y-102.861
X350.266Y-61.785
X350.266Y-64.325
X350.266Y-66.865
X350.266Y-69.406
X350.266Y-71.945
X350.266Y-74.486
X350.266Y-77.025
X350.266Y-79.566
X350.672Y-32.423
X355.551Y-89.148
X355.64Y-70.256
X355.702Y-108.966
X358.051Y-89.148
X358.14Y-70.256
X358.202Y-108.966
X358.521Y-137.846
X360.477Y-32.626
X361.975Y-50.978
X363.145Y-57.23
X363.145Y-76.28
X363.145Y-95.33
X363.145Y-114.38
X364.193Y-156.034
X364.475Y-50.978
X366.141Y-137.846
X366.693Y-156.034
X368.097Y-32.626
X368.956Y-132.221
X370.765Y-57.23
X370.765Y-76.28
X370.765Y-95.33
X370.765Y-114.38
X371.456Y-132.221
X380.884Y-86.97
X380.884Y-89.51
T4
X24.409Y-24.308
X24.409Y-26.848
X24.409Y-29.388
X24.409Y-31.928
X24.409Y-34.468
X24.409Y-37.008
X24.409Y-39.548
X24.409Y-42.088
X24.409Y-44.628
X24.409Y-47.168
X24.409Y-49.708
X24.409Y-52.248
X24.409Y-54.788
X26.949Y-49.708
X29.489Y-49.708
X32.029Y-49.708
X39.649Y-24.308
X39.649Y-26.848
X39.649Y-29.388
X39.649Y-31.928
X39.649Y-34.468
X39.649Y-37.008
X39.649Y-39.548
X39.649Y-42.088
X39.649Y-44.628
X39.649Y-47.168
X39.649Y-49.708
X39.649Y-52.248
X39.649Y-54.788
X338.099Y-38.65
X338.099Y-41.15
X338.099Y-43.65
X352.599Y-38.65
X352.599Y-43.65
X357.011Y-38.712
X357.011Y-41.212
X357.011Y-43.712
X371.511Y-38.712
X371.511Y-43.712
T5
X53.543Y-38.798
X53.543Y-62.611
X55.924Y-138.811
X58.306Y-81.661
X59.893Y-36.258
X59.893Y-60.071
X60.687Y-100.711
X62.274Y-136.271
X64.656Y-79.121
X65.449Y-119.761
X67.037Y-98.171
X71.799Y-117.221
X72.593Y-62.611
X77.356Y-38.798
X78.943Y-60.071
X79.737Y-138.811
X82.118Y-81.661
X83.706Y-36.258
X86.087Y-136.271
X86.881Y-100.711
X88.468Y-79.121
X91.643Y-62.611
X93.231Y-98.171
X96.406Y-38.798
X96.406Y-119.761
X97.993Y-60.071
X101.168Y-81.661
X102.756Y-36.258
X102.756Y-117.221
X103.549Y-138.811
X105.931Y-100.711
X107.518Y-79.121
X109.899Y-136.271
X110.693Y-62.611
X112.281Y-98.171
X115.456Y-38.798
X115.456Y-119.761
X117.043Y-60.071
X120.218Y-81.661
X121.806Y-36.258
X121.806Y-117.221
X124.981Y-100.711
X126.568Y-79.121
X129.743Y-62.611
X131.331Y-98.171
X134.506Y-38.798
X134.506Y-119.761
X136.093Y-60.071
X139.268Y-81.661
X140.856Y-36.258
X140.856Y-117.221
X144.031Y-100.711
X145.618Y-79.121
X148.793Y-62.611
X150.381Y-98.171
X153.556Y-119.761
X155.143Y-60.071
X158.318Y-38.798
X158.318Y-81.661
X159.906Y-117.221
X163.081Y-100.711
X164.668Y-36.258
X164.668Y-79.121
X167.843Y-62.611
X169.431Y-98.171
X172.606Y-119.761
X174.193Y-60.071
X174.987Y-138.811
X177.368Y-38.798
X177.368Y-81.661
X178.956Y-117.221
X181.337Y-136.271
X182.131Y-100.711
X183.718Y-36.258
X183.718Y-79.121
X186.893Y-62.611
X188.481Y-98.171
X191.656Y-119.761
X193.243Y-60.071
X196.418Y-38.798
X196.418Y-81.661
X198.006Y-117.221
X201.181Y-100.711
X202.768Y-36.258
X202.768Y-79.121
X205.943Y-62.611
X207.531Y-98.171
X210.706Y-119.761
X212.293Y-60.071
X215.468Y-38.798
X215.468Y-81.661
X217.056Y-117.221
X220.231Y-100.711
X221.818Y-36.258
X221.818Y-79.121
X224.993Y-62.611
X226.581Y-98.171
X229.756Y-119.761
X231.343Y-60.071
X234.518Y-81.661
X236.106Y-117.221
X239.281Y-38.798
X239.281Y-100.711
X240.868Y-79.121
X244.043Y-62.611
X245.631Y-36.258
X245.631Y-98.171
X246.424Y-138.811
X248.806Y-119.761
X250.393Y-60.071
X252.774Y-136.271
X253.568Y-81.661
X255.156Y-117.221
X258.331Y-38.798
X258.331Y-100.711
X259.918Y-79.121
X263.093Y-62.611
X264.681Y-36.258
X264.681Y-98.171
X267.856Y-119.761
X269.443Y-60.071
X270.237Y-138.811
X272.618Y-81.661
X274.206Y-117.221
X276.587Y-136.271
X277.381Y-38.798
X277.381Y-100.711
X278.968Y-79.121
X282.143Y-62.611
X283.731Y-36.258
X283.731Y-98.171
X288.493Y-60.071
X291.668Y-81.661
X294.049Y-119.761
X294.049Y-138.811
X296.431Y-38.798
X298.018Y-79.121
X300.399Y-117.221
X300.399Y-136.271
X302.781Y-36.258
X308.337Y-100.711
X310.718Y-62.611
X314.687Y-98.171
X315.481Y-38.798
X315.481Y-81.661
X317.068Y-60.071
X320.243Y-143.573
X321.831Y-36.258
X321.831Y-79.121
X326.593Y-141.034
X339.293Y-124.523
X339.293Y-143.573
X345.643Y-121.983
X345.643Y-141.034
X358.343Y-143.573
X363.106Y-62.611
X363.106Y-81.661
X363.106Y-100.711
X363.106Y-119.761
X364.693Y-141.034
X369.456Y-60.071
X369.456Y-79.121
X369.456Y-98.171
X369.456Y-117.221
T5
G00X344.949Y-35.55
M15
G01X346.249Y-35.55
M16
G05
G00X344.949Y-46.75
M15
G01X346.249Y-46.75
M16
G05
G00X363.861Y-35.611
M15
G01X365.161Y-35.611
M16
G05
G00X363.861Y-46.811
M15
G01X365.161Y-46.811
M16
G05
M30
